<?xml version="1.0" encoding="UTF-8" standalone="no"?>
<!-- Created with Inkscape (http://www.inkscape.org/) -->

<svg
   xmlns:dc="http://purl.org/dc/elements/1.1/"
   xmlns:cc="http://creativecommons.org/ns#"
   xmlns:rdf="http://www.w3.org/1999/02/22-rdf-syntax-ns#"
   xmlns:svg="http://www.w3.org/2000/svg"
   xmlns="http://www.w3.org/2000/svg"
   xmlns:sodipodi="http://sodipodi.sourceforge.net/DTD/sodipodi-0.dtd"
   xmlns:inkscape="http://www.inkscape.org/namespaces/inkscape"
   id="svg3336"
   version="1.1"
   inkscape:version="0.91 r13725"
   width="176.25"
   height="162.1875"
   viewBox="0 0 176.25 162.1875"
   sodipodi:docname="Faggot Productions inkscape.svg">
  <metadata
     id="metadata3342">
    <rdf:RDF>
      <cc:Work
         rdf:about="">
        <dc:format>image/svg+xml</dc:format>
        <dc:type
           rdf:resource="http://purl.org/dc/dcmitype/StillImage" />
        <dc:title></dc:title>
      </cc:Work>
    </rdf:RDF>
  </metadata>
  <defs
     id="defs3340" />
  <sodipodi:namedview
     pagecolor="#ffffff"
     bordercolor="#666666"
     borderopacity="1"
     objecttolerance="10"
     gridtolerance="10"
     guidetolerance="10"
     inkscape:pageopacity="0"
     inkscape:pageshadow="2"
     inkscape:window-width="1920"
     inkscape:window-height="1017"
     id="namedview3338"
     showgrid="false"
     inkscape:zoom="5.2285164"
     inkscape:cx="187.20076"
     inkscape:cy="81.745991"
     inkscape:window-x="1912"
     inkscape:window-y="-8"
     inkscape:window-maximized="1"
     inkscape:current-layer="svg3336" />
  <path
     style="fill:#000000"
     d="m 4.3662528,151.06684 c -0.334249,-5.80078 -0.609645,-16.55859 -0.611989,-23.90624 -0.004,-12.54996 0.104787,-13.35938 1.795598,-13.35938 3.287351,0 28.4271042,3.8827 30.6760652,4.73775 3.148407,1.19703 2.910363,5.57228 -0.934426,17.17477 -1.730299,5.22155 -3.424955,10.97029 -3.765904,12.77498 -0.73395,3.88489 -5.232896,13.125 -6.390473,13.125 -0.444551,0 -0.174121,-1.22632 0.600956,-2.72515 0.775078,-1.49884 2.299392,-6.034 3.387363,-10.07813 1.087973,-4.04413 2.995902,-10.22577 4.239844,-13.73697 1.243941,-3.5112 2.261712,-8.03009 2.261712,-10.04198 0,-3.43906 -0.210418,-3.71286 -3.515625,-4.57465 -5.907704,-1.54035 -18.300867,-3.06729 -22.2656245,-2.7433 l -3.7499997,0.30643 0.25461,11.71875 c 0.140036,6.44531 0.502551,16.25391 0.805589,21.79687 0.462065,8.45177 0.330627,10.07813 -0.814495,10.07813 -1.078703,0 -1.493108,-2.21501 -1.973201,-10.54688 z m 51.9744482,2.34375 c 1.53137,-4.51171 3.45274,-11.12055 4.26972,-14.6863 1.61774,-7.06077 4.47423,-10.65542 15.17689,-19.09878 5.57012,-4.39427 8.58769,-5.0879 8.58769,-1.97399 0,1.3411 -0.43679,1.80769 -1.36044,1.45326 -0.74824,-0.28713 -2.33027,0.28651 -3.51562,1.27476 l -2.15519,1.7968 3.48264,0.0312 c 3.80012,0.034 5.07327,-1.34369 5.59414,-6.05362 0.24474,-2.21306 -0.12211,-2.80167 -2.04553,-3.28209 -2.14819,-0.53657 -1.97044,-0.72908 2.13027,-2.30711 2.46072,-0.94693 4.64323,-1.5525 4.85002,-1.3457 0.65713,0.65713 -4.97702,14.23518 -6.23907,15.03585 -0.66548,0.42221 -3.11466,0.77411 -5.4426,0.782 -4.64001,0.0157 -10.56248,2.63108 -13.64432,6.02528 -1.48273,1.63302 -2.32519,4.87465 -3.57752,13.76568 -2.20183,15.63199 -2.44725,16.78587 -3.57022,16.78587 -0.61027,0 -0.76162,-1.64987 -0.4085,-4.45313 0.5725,-4.54485 -0.0701,-3.99341 -2.18503,1.875 -0.51102,1.41797 -1.33469,2.57813 -1.83038,2.57813 -0.49569,0 0.35168,-3.69141 1.88305,-8.20313 z m 75.711599,2.33336 c -4.20755,-9.92757 -4.86608,-15.32425 -4.94639,-40.53648 -0.0658,-20.659354 0.14091,-24.143614 1.74399,-29.394608 1.00025,-3.276413 2.32864,-6.152816 2.95197,-6.392009 1.45013,-0.556469 9.5462,3.532133 13.37698,6.755528 3.25227,2.736603 3.76187,5.890775 1.88924,11.693535 -0.5813,1.80128 -1.40319,12.556304 -1.82645,23.900054 -1.30489,34.97362 -1.76846,39.84375 -3.79252,39.84375 -1.58547,0 -1.6939,-0.63652 -1.23772,-7.26563 0.275,-3.99609 0.93131,-11.42034 1.45845,-16.49834 0.97527,-9.39465 0.731,-11.19938 -1.24798,-9.2204 -3.38357,3.38357 -6.35937,-0.3223 -6.35937,-7.91954 0,-6.80754 2.7439,-9.91135 5.65797,-6.40011 0.66004,0.79529 1.50635,1.1117 1.88069,0.70313 0.37436,-0.40858 0.96976,-6.06442 1.32314,-12.56854 0.62367,-11.479024 0.57877,-11.898614 -1.53153,-14.313395 -1.19571,-1.368239 -3.56462,-2.878295 -5.26425,-3.355681 -2.84208,-0.798273 -3.16704,-0.66596 -4.04669,1.647672 -1.64287,4.3211 -2.61312,26.197514 -1.75361,39.539264 0.5693,8.837 1.68501,16.09417 3.67939,23.93282 3.35378,13.18156 3.14231,11.72119 1.69551,11.70835 -0.64453,-0.006 -2.28739,-2.64243 -3.65082,-5.85937 z m 7.62085,-33.80124 c 0.0152,-3.79866 -1.32691,-7.20399 -2.83933,-7.20399 -0.86091,0 -0.39161,8.93661 0.63865,12.16122 0.75331,2.3578 2.18425,-0.86554 2.20068,-4.95723 z m -22.4713,27.30447 c 0.008,-1.19059 0.42331,-2.79752 0.92315,-3.57096 0.69151,-1.07003 0.91222,-0.69102 0.92315,1.58529 0.007,1.64535 -0.40752,3.25228 -0.92315,3.57096 -0.52278,0.32309 -0.93115,-0.3782 -0.92315,-1.58529 z M 45.995881,145.9681 c -2.05828,-1.96522 -4.03375,-4.83876 -4.38995,-6.38563 -0.61329,-2.66335 -0.40122,-2.5515 3.99912,2.10937 3.7708,3.99406 5.22683,4.92188 7.72397,4.92188 3.99407,0 3.45115,2.2306 -0.6415,2.63563 -2.35184,0.23275 -3.70745,-0.43197 -6.69164,-3.28125 z M 149.26118,121.30122 c -0.006,-5.62016 0.14597,-6.38259 0.75427,-3.79911 0.41857,1.77768 0.4216,4.94174 0.007,7.03125 -0.65244,3.28628 -0.75517,2.84998 -0.76101,-3.23214 z m 24.90647,3.11265 c -0.88747,-0.98687 -3.77538,-5.78234 -6.41755,-10.6566 -3.09489,-5.70944 -6.9833,-11.12595 -10.92981,-15.225144 -6.49739,-6.74877 -7.15277,-8.74812 -1.77891,-5.4269 4.78399,2.95668 8.11872,7.147244 13.16548,16.544364 2.47244,4.60371 5.32836,9.27831 6.34647,10.38801 1.01812,1.10969 1.7109,2.95204 1.53953,4.0941 -0.30553,2.03591 -0.34313,2.04143 -1.92521,0.28217 z M 71.074221,116.9108 c 0.67676,-0.27081 1.48535,-0.23751 1.79687,0.074 0.31153,0.31153 -0.24219,0.5331 -1.23047,0.4924 -1.09213,-0.045 -1.31428,-0.26713 -0.5664,-0.5664 z m -16.69922,-6.77362 c 0,-1.19022 2.6001,-7.88573 5.77801,-14.878894 6.65244,-14.639114 7.28414,-18.291062 5.06141,-29.260703 -0.86049,-4.246688 -1.3366,-7.949176 -1.05803,-8.227749 0.79808,-0.798084 3.43175,6.20596 4.50634,11.984305 1.32266,7.1122 0.27876,12.953648 -3.65171,20.434287 -1.81163,3.44798 -4.55548,9.43311 -6.09746,13.300294 -3.14708,7.8927 -4.53856,9.93106 -4.53856,6.64846 z m 11.25,0.77816 c 0,-0.40103 4.11328,-1.66595 9.14062,-2.81093 5.02735,-1.14497 11.16035,-3.0889 13.6289,-4.31983 2.46855,-1.23094 4.87591,-1.9985 5.34968,-1.70569 1.89998,1.17425 -0.46274,3.36866 -5.06871,4.70766 -7.39589,2.15004 -23.05049,4.95409 -23.05049,4.12879 z m -43.125002,-4.64053 c -7.476563,-0.95203 -14.0743552,-1.75743 -14.6617642,-1.78977 -0.587408,-0.0323 -2.052428,-0.85595 -3.255599,-1.83022 C 2.4675348,100.94211 2.3867728,100.35968 2.1452008,85.0767 2.0077828,76.383001 1.5417468,61.465286 1.1095658,51.926224 0.67738377,42.387161 0.48676577,34.266068 0.68596877,33.879349 0.88517277,33.49263 10.962218,33.176224 23.079406,33.176224 c 14.448771,0 21.831835,0.322658 21.451845,0.9375 -0.3329,0.538645 -5.64127,0.969216 -12.477205,1.012047 -17.24251,0.108035 -27.2715502,1.082601 -28.3611022,2.755973 -0.539532,0.828631 -0.688592,6.867908 -0.369783,14.98198 0.870028,22.143289 2.31881,45.828372 2.895119,47.330206 0.744213,1.93939 5.3887442,2.9646 19.4982202,4.30395 l 12.122751,1.15076 1.738904,-2.25183 c 0.956396,-1.23852 3.094906,-4.111074 4.752246,-6.383484 3.81668,-5.23311 6.632,-7.30786 12.18349,-8.978608 6.3571,-1.913206 5.44706,-0.08781 -1.77016,3.550658 -5.74263,2.89507 -6.44255,3.59593 -9.60937,9.622294 -4.07569,7.75591 -3.1486,7.54836 -22.634362,5.06714 z m 39.375002,0.17171 c 0,-2.15401 4.80665,-4.48151 15.23611,-7.377724 13.96464,-3.8779 15.07966,-4.01512 15.5065,-1.9082 0.22599,1.11552 -0.25312,1.64063 -1.49688,1.64063 -1.00609,0 -3.26126,0.59833 -5.0115,1.329624 -1.75024,0.7313 -6.68286,1.99369 -10.96137,2.80531 -4.2785,0.81161 -8.68719,2.11172 -9.79708,2.88911 -2.26223,1.58453 -3.47578,1.80143 -3.47578,0.62125 z m 36.17272,-4.70502 c -0.27524,-0.44534 1.662962,-1.06594 4.307099,-1.37909 2.99115,-0.35426 7.98026,-2.193404 13.20506,-4.867824 4.61865,-2.36414 8.59697,-4.09902 8.84071,-3.85528 1.08318,1.08319 -7.33546,7.96486 -11.46517,9.371984 -4.79483,1.63376 -14.048759,2.08766 -14.887699,0.73021 z m -30.88604,-6.403594 c -0.25129,-0.25129 0.93786,-2.28409 2.64254,-4.51735 1.70469,-2.233258 4.44072,-6.404798 6.08007,-9.27009 3.17314,-5.546057 5.32296,-7.821631 3.90267,-4.130944 -0.4578,1.189624 -1.93856,4.653582 -3.29056,7.697685 -1.352,3.044104 -2.26938,5.723539 -2.03862,5.954299 0.23077,0.23077 2.55654,-1.57931 5.1684,-4.022393 l 4.74882,-4.441968 -0.0144,3.175165 c -0.0167,3.697326 -0.63841,4.841656 -3.42806,6.309866 -2.58284,1.35937 -13.16347,3.85317 -13.77091,3.24573 z m 20.81452,-15.532577 c -0.39874,-13.655004 -0.93102,-14.407603 -10.84047,-15.327468 -7.42615,-0.689347 -8.38356,-2.242238 -1.37728,-2.233909 5.89608,0.007 10.76409,1.456076 12.92913,3.848632 1.52675,1.687188 1.76341,3.344102 1.65683,11.6001 -0.18505,14.335312 -1.96494,15.923112 -2.36821,2.112645 z m 36.242549,-1.629105 c -1.4717,-1.536118 -2.46487,-3.003879 -2.20706,-3.261692 0.25781,-0.257812 1.67286,0.788074 3.14456,2.324192 1.4717,1.536118 2.46487,3.003879 2.20706,3.261692 -0.25781,0.257812 -1.67286,-0.788074 -3.14456,-2.324192 z M 71.747821,69.785761 c -0.93498,-1.512824 2.90645,-2.867608 7.64367,-2.695749 l 4.51476,0.163788 -4.21804,0.370284 c -2.34984,0.206282 -4.55041,0.964191 -4.96846,1.711211 -0.86348,1.542956 -2.17397,1.741592 -2.97193,0.450466 z m 45.401389,-7.163613 c -1.52479,-3.398492 -3.62653,-7.264979 -4.67052,-8.592195 l -1.89816,-2.413119 3.53786,-1.980721 c 2.45369,-1.373733 4.32539,-3.535334 6.10773,-7.053718 2.32117,-4.582078 2.43928,-5.272288 1.22047,-7.132426 -1.88504,-2.876933 -8.82137,-6.023745 -13.27778,-6.023745 -2.5227,0 -5.14573,0.891981 -8.06241,2.741685 -2.377749,1.507927 -6.151749,3.150248 -8.386669,3.649601 -2.23491,0.499354 -3.11426,0.953096 -1.95411,1.008315 2.5632,0.121999 2.56851,0.212633 0.27549,4.707318 -2.39806,4.700575 -7.01376,8.518081 -10.29911,8.518081 -3.19492,0 -7.06173,-2.907183 -9.15056,-6.879653 l -1.5586,-2.964097 -1.20527,4.086659 c -0.66289,2.247662 -1.69225,4.673443 -2.28746,5.390625 -2.83699,3.418366 -7.28328,-0.117084 -9.76083,-7.761286 -2.46482,-7.604908 -2.07288,-8.176067 6.1066,-8.898898 3.8612,-0.34122 9.12974,-0.869393 11.70787,-1.173716 4.30387,-0.508032 4.50329,-0.448365 2.43672,0.72906 -2.16,1.230661 -2.17891,1.327281 -0.46875,2.395934 1.55938,0.974426 1.40134,1.068988 -1.26485,0.756833 -3.75212,-0.439294 -4.03516,1.339159 -0.9375,5.890572 6.57519,9.660953 13.33522,7.218325 9.68347,-3.498965 -1.88892,-5.543684 -1.16231,-6.298663 6.94467,-7.215865 3.06921,-0.347241 5.78995,-0.970438 6.04609,-1.38488 0.59185,-0.957634 -21.41194,-6.539717 -29.95498,-7.599199 -8.24813,-1.022908 -11.1565,0.199758 -8.91378,3.747309 0.76014,1.2024 1.08708,1.135756 2.29958,-0.46875 1.37003,-1.812984 1.41436,-1.790535 1.44326,0.730896 0.0478,4.169025 -3.24486,4.827629 -12.45998,2.49228 -11.800642,-2.990588 -14.558916,-5.64225 -9.391232,-9.028247 1.989082,-1.303295 4.503822,-1.624521 12.421872,-1.586739 9.89182,0.0472 17.10002,1.196016 35.15899,5.603508 5.11147,1.24751 9.4749,2.08689 9.6965,1.865288 1.53128,-1.531274 -18.57786,-7.318062 -29.86976,-8.595595 -3.03961,-0.343893 -5.52657,-0.82205 -5.52657,-1.06257 0,-0.240521 0.83718,-1.613026 1.86041,-3.050013 1.60244,-2.250426 2.67489,-2.6843558 7.73437,-3.1294551 3.23068,-0.284214 6.97501,-0.793535 8.32074,-1.131825 1.97426,-0.496294 2.54571,-0.236728 2.9591,1.344108 0.59875,2.2896101 2.77186,2.5603651 4.43788,0.5529311 0.94922,-1.1437381 0.90449,-1.4062501 -0.23961,-1.4062501 -0.77368,0 -2.03616,-0.948022 -2.8055,-2.106716 -1.38622,-2.087759 -1.43047,-2.091615 -4.91792,-0.428568 -4.28786,2.044737 -4.90155,1.629203 -2.65876,-1.800242 1.83075,-2.799368 1.40281,-2.711137 -3.58543,0.739244 -3.16887,2.191909 -3.87411,2.170186 -3.15448,-0.09717 0.89767,-2.828312 -4.35745,-3.766335 -22.48205,-4.012975 -13.420242,-0.18262304 -11.865464,-0.29450402 9.84375,-0.70835302 20.47825,-0.390383 26.09957,-0.237868 27.3288,0.74147102 1.1974,0.953974 1.70627,0.976143 2.249,0.09797 0.52652,-0.85191202 4.89152,-1.00553802 17.502179,-0.61598802 18.69559,0.57751702 19.4751,0.83736002 21.47942,7.15998102 0.64798,2.0440533 1.24145,13.9488191 1.50483,30.1867681 l 0.43489,26.811682 -2.56349,2.016443 c -1.40992,1.109043 -2.94611,2.016443 -3.41377,2.016443 -0.46765,0 -2.09784,-2.780584 -3.62265,-6.179076 z m 6.17059,-7.945797 c 0.33987,-0.54993 0.47024,-1.145489 0.28971,-1.323464 -0.64526,-0.636087 -5.48451,0.68314 -5.48451,1.495128 0,1.177295 4.45202,1.030177 5.1948,-0.171664 z m -1.40873,-5.633332 c 1.07205,-2.101389 1.7897,-4.52717 1.59478,-5.390625 -0.24335,-1.077964 -0.81319,-0.516106 -1.81848,1.792991 -3.36739,7.734711 -3.20654,10.321467 0.2237,3.597634 z M 65.251911,43.873137 c 1.48816,-3.561672 1.73554,-7.884413 0.45121,-7.884413 -0.47265,0 -1.01494,0.466701 -1.20508,1.037112 -0.25084,0.752524 -1.35114,0.759497 -4.00978,0.02541 -2.01525,-0.556436 -3.81139,-0.864397 -3.99143,-0.684359 -0.60824,0.608249 3.43603,10.250934 4.60148,10.971224 1.62341,1.003323 2.64147,0.154048 4.1536,-3.464974 z M 123.18095,27.943299 c 0.92524,-2.411148 0.63995,-12.749826 -0.46354,-16.798325 -0.56217,-2.0625001 -1.89898,-4.6992191 -2.97069,-5.8593751 -1.85061,-2.003339 -2.63547,-2.108654 -15.61326,-2.09502 -14.208269,0.01493 -17.262069,0.590659 -14.646589,2.761316 2.00712,1.665759 1.81828,3.254854 -0.74027,6.2293391 -1.51186,1.757645 -3.47316,2.734709 -6.32812,3.152492 -4.01741,0.587889 -3.59421,0.784338 14.61277,6.783183 24.777669,8.163757 25.215349,8.261276 26.149699,5.82639 z M 53.906251,22.863724 c 0,-1.618375 -6.34607,-2.388087 -11.58538,-1.405186 -5.849146,1.097305 -0.62661,3.180958 7.36663,2.939091 3.06826,-0.09284 4.21875,-0.511151 4.21875,-1.533905 z m 16.40625,32.886989 c 0,-1.053441 5.51745,-2.369533 6.36801,-1.518978 0.33492,0.334916 -0.0117,1.001414 -0.77016,1.481108 -1.78468,1.128666 -5.59785,1.154463 -5.59785,0.03787 z m 29.0625,-9.393638 c 0,-1.91856 2.622089,-2.894335 5.172229,-1.924773 1.4233,0.541135 2.42384,1.123303 2.22342,1.293707 -0.89487,0.760854 -7.395649,1.315562 -7.395649,0.631066 z m 12.218689,0.04041 c -0.0619,-2.597395 4.01743,-12.340597 5.02809,-12.009404 1.67482,0.548841 1.74393,5.094291 0.10543,6.934484 -0.83126,0.933578 -2.31934,2.752103 -3.30685,4.041166 -1.0704,1.397257 -1.80808,1.814725 -1.82667,1.033754 z m -11.28119,-5.56318 c 0,-0.932581 2.03799,-2.970577 2.97058,-2.970577 0.39631,0 0.49026,0.600194 0.20876,1.333763 -0.55815,1.454496 -3.17934,2.803962 -3.17934,1.636814 z m 30.70312,-9.267065 c -2.91248,-0.441205 -3.40142,-1.758338 -0.9375,-2.52544 2.75222,-0.856856 26.36346,-2.42338 36.5625,-2.425796 7.86275,-0.0019 9.60938,0.250081 9.60938,1.386113 0,1.814437 -1.51028,2.0767 -18.75,3.255984 -14.37867,0.983574 -21.48474,1.066519 -26.48438,0.309139 z M 0.70312477,21.396871 c -0.97730105,-1.001657 -0.88778605,-21.03314712 0.09399,-21.03314712 0.43841403,0 1.06926003,3.83397802 1.40188003,8.51995202 0.33262,4.6859731 0.881333,8.9674501 1.219363,9.5143941 0.638633,1.033331 23.1219342,0.430436 29.1597652,-0.781926 3.581387,-0.719122 4.142122,0.830078 0.9375,2.590123 -2.384884,1.309828 -31.6597612,2.37207 -32.81249923,1.190604 z M 50.625001,13.69426 c 0,-0.402582 1.2691,-1.210999 2.82023,-1.796485 2.04675,-0.772562 2.97989,-1.862768 3.40234,-3.9750451 0.80867,-4.04333 2.2176,-4.566345 2.20213,-0.81746 -0.0254,6.1414961 -0.79609,7.3209541 -4.78404,7.3209541 -2.00237,0 -3.64066,-0.329384 -3.64066,-0.731964 z m 79.131389,-1.046508 c 1.40295,-1.550238 2.90507,-1.975698 7.02954,-1.991042 2.88492,-0.01073 12.62813,-0.634763 21.65157,-1.3867361 9.02344,-0.751973 16.72266,-1.376004 17.10937,-1.386736 0.38672,-0.01073 0.70313,0.60526 0.70313,1.368874 0,1.8626031 -1.50861,2.0961761 -21.09375,3.2658661 -9.28125,0.554308 -19.19454,1.253863 -22.02953,1.554567 l -5.15454,0.546735 1.78421,-1.971528 z"
     id="path3346"
     inkscape:connector-curvature="0"
     inkscape:export-filename="C:\Users\benfi\Desktop\Logos\Faggot Productions\Faggot Production.png"
     inkscape:export-xdpi="11.147605"
     inkscape:export-ydpi="11.147605" />
  <text
     xml:space="preserve"
     style="font-style:normal;font-weight:normal;font-size:40px;line-height:125%;font-family:sans-serif;letter-spacing:0px;word-spacing:0px;fill:#000000;fill-opacity:1;stroke:none;stroke-width:1px;stroke-linecap:butt;stroke-linejoin:miter;stroke-opacity:1"
     x="114.18153"
     y="153.38959"
     id="text3356"
     sodipodi:linespacing="125%"><tspan
       sodipodi:role="line"
       id="tspan3358"
       x="114.18153"
       y="153.38959" /></text>
  <text
     xml:space="preserve"
     style="font-style:normal;font-weight:normal;font-size:40px;line-height:125%;font-family:sans-serif;letter-spacing:0px;word-spacing:0px;fill:#000000;fill-opacity:1;stroke:none;stroke-width:1px;stroke-linecap:butt;stroke-linejoin:miter;stroke-opacity:1"
     x="78.224869"
     y="144.9742"
     id="text3360"
     sodipodi:linespacing="125%"><tspan
       sodipodi:role="line"
       x="78.224869"
       y="144.9742"
       id="tspan3364" /></text>
  <text
     xml:space="preserve"
     style="font-style:normal;font-weight:normal;font-size:20px;line-height:125%;font-family:sans-serif;letter-spacing:0px;word-spacing:0px;fill:#000000;fill-opacity:1;stroke:none;stroke-width:1px;stroke-linecap:butt;stroke-linejoin:miter;stroke-opacity:1;"
     x="68.08815"
     y="157.21477"
     id="text3368"
     sodipodi:linespacing="125%"><tspan
       sodipodi:role="line"
       id="tspan3370"
       x="68.08815"
       y="157.21477" /></text>
  <text
     xml:space="preserve"
     style="font-style:normal;font-weight:normal;font-size:15px;line-height:125%;font-family:sans-serif;letter-spacing:0px;word-spacing:0px;fill:#000000;fill-opacity:1;stroke:none;stroke-width:1px;stroke-linecap:butt;stroke-linejoin:miter;stroke-opacity:1;"
     x="66.749336"
     y="143.44414"
     id="text3372"
     sodipodi:linespacing="125%"><tspan
       sodipodi:role="line"
       id="tspan3374"
       x="66.749336"
       y="143.44414" /></text>
  <text
     xml:space="preserve"
     style="font-style:normal;font-weight:normal;font-size:7.5px;line-height:125%;font-family:sans-serif;letter-spacing:0px;word-spacing:0px;fill:#000000;fill-opacity:1;stroke:none;stroke-width:1px;stroke-linecap:butt;stroke-linejoin:miter;stroke-opacity:1"
     x="85.914436"
     y="125.49364"
     id="text3376"
     sodipodi:linespacing="125%"
     transform="matrix(0.98944917,0.14488042,-0.14488042,0.98944917,0,0)"
     inkscape:export-filename="C:\Users\benfi\Desktop\Logos\Faggot Productions\Faggot Production.png"
     inkscape:export-xdpi="11.147605"
     inkscape:export-ydpi="11.147605"><tspan
       sodipodi:role="line"
       id="tspan3378"
       x="85.914436"
       y="125.49364"
       style="font-size:7.5px">enter text here</tspan></text>
</svg>
