<?xml version="1.0" encoding="UTF-8" standalone="no"?>
<!-- Created with Inkscape (http://www.inkscape.org/) -->

<svg
   xmlns:dc="http://purl.org/dc/elements/1.1/"
   xmlns:cc="http://creativecommons.org/ns#"
   xmlns:rdf="http://www.w3.org/1999/02/22-rdf-syntax-ns#"
   xmlns:svg="http://www.w3.org/2000/svg"
   xmlns="http://www.w3.org/2000/svg"
   xmlns:sodipodi="http://sodipodi.sourceforge.net/DTD/sodipodi-0.dtd"
   xmlns:inkscape="http://www.inkscape.org/namespaces/inkscape"
   id="svg3336"
   version="1.1"
   inkscape:version="0.91 r13725"
   width="210"
   height="100"
   viewBox="0 0 210 99.999999"
   sodipodi:docname="rpm_rc_products.svg">
  <metadata
     id="metadata3342">
    <rdf:RDF>
      <cc:Work
         rdf:about="">
        <dc:format>image/svg+xml</dc:format>
        <dc:type
           rdf:resource="http://purl.org/dc/dcmitype/StillImage" />
        <dc:title></dc:title>
      </cc:Work>
    </rdf:RDF>
  </metadata>
  <defs
     id="defs3340" />
  <sodipodi:namedview
     pagecolor="#ffffff"
     bordercolor="#666666"
     borderopacity="1"
     objecttolerance="10"
     gridtolerance="10"
     guidetolerance="10"
     inkscape:pageopacity="0"
     inkscape:pageshadow="2"
     inkscape:window-width="1920"
     inkscape:window-height="1017"
     id="namedview3338"
     showgrid="false"
     inkscape:zoom="7.6354167"
     inkscape:cx="109.00522"
     inkscape:cy="52.338987"
     inkscape:window-x="1912"
     inkscape:window-y="-8"
     inkscape:window-maximized="1"
     inkscape:current-layer="svg3336" />
  <path
     style="fill:#000000"
     d="M 47.474898,88.633041 C 27.710712,86.322765 16.253451,82.125324 11.141612,75.322107 9.2309777,72.779292 9.0748976,72.179745 9.0748976,67.383274 l 0,-4.273056 1.0365374,-2.065305 c 2.077171,-4.138773 6.193117,-8.503812 11.989723,-12.715326 1.415557,-1.028469 2.57374,-1.989204 2.57374,-2.134964 0,-0.14576 0.2475,-0.265018 0.549999,-0.265018 0.784125,0 0.9654,-0.283483 0.577974,-0.90385 -0.271603,-0.434906 -0.12464,-0.979757 0.760008,-2.817657 0.993691,-2.064444 1.178701,-2.278493 1.96938,-2.278493 0.620359,0 0.918023,-0.17347 1.029563,-0.6 0.116383,-0.445048 0.0092,-0.6 -0.41501,-0.6 -0.771124,0 -0.720233,-0.584291 0.217408,-2.496105 l 0.789323,-1.609397 9.522471,-0.202741 c 9.095586,-0.193652 9.601515,-0.234809 11.285679,-0.918071 2.848026,-1.15544 10.083561,-3.609587 15.413205,-5.227846 14.096814,-4.280269 28.265856,-7.287972 45.300002,-9.61596 11.8822,-1.623893 12.96701,-1.679879 32.55,-1.679879 20.08078,0 21.2347,0.07485 30.33802,1.967973 7.57716,1.575742 12.66298,3.332185 17.41857,6.015698 2.93064,1.653722 6.58465,5.192909 7.69193,7.450232 0.7489,1.526711 0.80146,1.900659 0.80124,5.7 -2.3e-4,3.908467 -0.0357,4.140974 -0.91397,5.997584 -1.79684,3.798206 -5.41663,7.934342 -10.45082,11.941571 -2.20643,1.756329 -2.2239,1.781703 -4.50524,6.545052 l -2.29022,4.781889 0.35912,1.793133 c 0.41798,2.087048 0.24276,3.360083 -0.51854,3.767522 -0.30794,0.164805 -3.9451,0.289344 -8.45037,0.289344 -8.1609,0 -8.62972,-0.06655 -8.62972,-1.225011 0,-0.277755 -0.28783,-0.580281 -0.63963,-0.672276 -0.46659,-0.122016 -0.59653,-0.332034 -0.48034,-0.776333 0.15381,-0.588186 0.12174,-0.593607 -0.93538,-0.158097 -0.60206,0.248034 -1.5446,0.986639 -2.09453,1.641344 -0.9875,1.175628 -1.02554,1.190373 -3.07068,1.190373 -1.67368,0 -2.83392,0.261495 -6.05012,1.363581 -15.1068,5.176599 -32.89568,9.390996 -49.90546,11.823195 -15.5434,2.222523 -15.225949,2.20203 -35.223862,2.274042 -9.9825,0.03595 -18.6225,0.01011 -19.2,-0.05738 z m 36.45,-0.99048 c 14.90766,-1.448376 26.067492,-3.073683 36.000002,-5.243001 6.20269,-1.354704 12.85316,-2.977143 17.25,-4.208283 6.22434,-1.742853 18.07354,-5.588136 17.86436,-5.797314 -0.0865,-0.08644 -0.8914,-0.133176 -1.78879,-0.103851 -0.89739,0.02931 -1.71476,-0.0812 -1.81637,-0.245613 -0.10161,-0.164412 -0.17665,-5.220605 -0.16676,-11.23598 0.01,-6.015378 -0.0967,-11.007951 -0.23692,-11.094603 -0.14021,-0.08665 -0.65937,0.695229 -1.1537,1.73751 -0.78339,1.65177 -0.82837,1.876647 -0.3503,1.751631 0.52219,-0.136554 0.54848,0.282474 0.54848,8.741559 0,7.697769 0.0601,8.884989 0.45,8.884989 0.27751,0 0.45,0.281639 0.45,0.734762 0,0.687513 -0.33279,0.840879 -5.175,2.384922 -19.17922,6.115695 -40.99858,10.329072 -63.375002,12.237879 -7.174002,0.611976 -29.69316,0.518598 -35.7,-0.148035 -6.243018,-0.692841 -9.684359,-1.266441 -14.1,-2.350179 -13.810141,-3.389448 -20.930892,-8.369316 -21.634612,-15.130079 -0.493919,-4.745169 3.031114,-10.66686 9.377149,-15.75264 1.80547,-1.446924 2.507463,-1.776333 2.507463,-1.17663 0,0.165 0.27,0.3 0.6,0.3 1.350223,0 0.411088,2.185974 -1.05,2.444028 -0.422748,0.07467 -1.02509,0.980733 -2.038932,3.067041 -0.791412,1.628586 -1.398912,2.995566 -1.35,3.037731 0.04891,0.04216 0.366613,0.161757 0.706001,0.265761 0.53939,0.165294 0.772421,-0.151017 1.851163,-2.512731 l 1.234095,-2.70183 15.290503,0 c 14.378258,0 15.288017,-0.03132 15.248837,-0.525 -0.03882,-0.489123 -0.964218,-0.535566 -13.541667,-0.679596 l -13.5,-0.154593 13.557294,-0.07041 c 8.63736,-0.04485 13.624581,-0.179274 13.742706,-0.370404 0.122643,-0.198444 -4.796886,-0.3 -14.532294,-0.3 -16.970394,0 -15.408093,0.389859 -13.67528,-3.412548 l 1.042425,-2.287452 15.157574,0 c 9.004968,0 15.157575,-0.111813 15.157575,-0.275463 0,-0.151506 0.08194,-0.489006 0.182097,-0.75 0.164508,-0.4287 -1.224729,-0.474537 -14.382294,-0.474537 -8.469979,0 -14.635289,-0.114712 -14.73382,-0.274137 -0.421349,-0.681759 -7.025886,4.117473 -11.072041,8.045574 -3.087692,2.997603 -4.926458,5.446797 -6.24986,8.324664 -1.2992584,2.825361 -1.5282531,6.472251 -0.5676873,9.040778 1.6778663,4.486575 6.8038563,8.672061 13.9989193,11.430435 2.297582,0.880827 8.662257,2.657721 11.374686,3.175593 4.553319,0.869346 14.671563,2.087559 19.8,2.383872 5.226288,0.301971 22.837608,-0.134535 28.8,-0.713823 z m -4.5,-2.11446 c 14.679756,-0.932874 33.852962,-3.906867 48.600002,-7.538442 9.65555,-2.377755 23.30501,-6.494247 21.7,-6.544425 -0.275,-0.0086 -0.545,-0.139332 -0.6,-0.29052 -0.055,-0.151191 -1.6525,0.235653 -3.55,0.859653 -1.8975,0.623997 -6.2175,1.884639 -9.6,2.801427 C 103.38522,83.64885 66.497193,87.077895 41.624706,83.58642 30.070056,81.964434 21.466605,78.730347 17.339013,74.457282 16.406337,73.491735 15.934468,73.229604 15.12904,73.229604 c -0.930594,0 -1.011,-0.06847 -0.880717,-0.75 0.111395,-0.582726 0.01883,-0.75 -0.415027,-0.75 -0.681575,0 -0.733526,-1.006451 -0.108398,-2.099999 0.235806,-0.4125 0.433522,-1.51203 0.439369,-2.443398 0.02199,-3.502224 1.733847,-7.100331 5.095085,-10.709196 0.820946,-0.881427 1.564949,-1.830453 1.653339,-2.108946 0.08839,-0.278493 0.599797,-0.67386 1.136458,-0.878589 0.758886,-0.289509 0.879417,-0.432834 0.542314,-0.644874 -1.275581,-0.802356 -8.096177,6.518214 -9.976615,10.707939 -0.481856,1.073601 -0.646622,2.058663 -0.665224,3.977064 -0.02217,2.286066 0.0666,2.714856 0.857616,4.142756 4.311232,7.782396 19.403109,12.830325 42.317658,14.154411 5.155152,0.297882 17.252331,0.149196 24.3,-0.298671 z m -1.05,-1.79835 C 95.995464,82.572948 115.59467,79.373109 133.1249,74.791056 l 5.4,-1.411452 -2.7,-0.15 c -2.39646,-0.133137 -3.22278,-0.02352 -7.35,0.975093 -23.63733,5.719182 -47.965988,8.641668 -68.540351,8.233428 -10.391721,-0.206196 -16.199241,-0.772743 -23.973534,-2.338716 -5.922102,-1.192887 -12.016753,-3.555936 -14.94312,-5.793825 -1.006446,-0.769662 -1.711049,-1.07598 -2.475,-1.07598 -0.587399,0 -1.067997,0.131862 -1.067997,0.293025 0,0.365919 2.649432,2.476236 4.387944,3.495072 6.403938,3.752958 18.458865,6.318876 33.412056,7.111833 3.34848,0.177567 18.228261,-0.07995 23.1,-0.399783 z m 1.35,-2.56458 c 16.004079,-1.211166 31.305002,-3.603552 47.396062,-7.410639 4.06379,-0.961482 5.41914,-1.396518 5.48953,-1.76202 0.055,-0.285486 -0.15958,-0.551505 -0.52107,-0.646035 -0.35488,-0.0928 -0.61452,-0.408383 -0.61452,-0.746921 0,-0.666501 1.14964,-2.487105 2.41215,-3.819951 0.46887,-0.495 1.80484,-2.904696 2.96881,-5.35488 l 2.11631,-4.45488 -1.05981,0.930522 c -2.05632,1.805472 -2.23021,1.829238 -13.38455,1.829238 l -10.17381,0 -2.04338,4.275 c -1.62147,3.392343 -1.99096,4.4184 -1.78955,4.96953 0.44108,1.206918 0.30022,3.706964 -0.24267,4.306847 -0.46795,0.517083 -1.33024,0.548622 -14.999999,0.548622 -12.692004,0 -14.503503,-0.05621 -14.503503,-0.45 0,-0.2475 -0.261264,-0.711264 -0.580584,-1.030584 -0.494181,-0.494181 -0.674496,-1.576847 -1.211622,-7.274999 -0.347073,-3.68193 -0.69156,-6.869652 -0.765534,-7.083831 -0.09565,-0.276954 -0.677112,-0.363594 -2.013378,-0.3 l -1.878882,0.08941 -2.448039,5.004459 c -2.277462,4.655748 -2.429514,5.084277 -2.182158,6.15 0.407046,1.753728 0.330321,3.490475 -0.186813,4.228787 -0.456342,0.651516 -0.598584,0.666072 -6.225,0.636978 -8.223201,-0.04252 -10.823952,-0.273342 -10.957215,-0.972468 -0.05789,-0.303735 -0.365058,-0.81204 -0.682587,-1.129569 -0.772632,-0.772631 -0.532554,-1.713116 1.06401,-4.168187 0.697458,-1.0725 1.883241,-3.3 2.635071,-4.95 0.75183,-1.65 3.152415,-6.8475 5.334633,-11.55 2.182218,-4.7025 4.286508,-9.243526 4.676202,-10.091168 0.682242,-1.483986 0.691038,-1.592515 0.237012,-2.925 -0.259335,-0.761107 -0.533421,-1.383832 -0.609078,-1.383832 -0.07566,0 -0.548193,0.8775 -1.050078,1.95 -0.89445,1.911401 -0.935706,1.95 -2.084238,1.95 -0.644448,0 -1.171722,0.135 -1.171722,0.3 0,0.165 0.329532,0.3 0.732294,0.3 0.402762,0 0.807618,0.121874 0.899679,0.270831 0.09206,0.148957 -0.366291,1.431457 -1.01856,2.85 l -1.185942,2.579169 -1.288737,0.04801 c -1.104603,0.04115 -1.149429,0.0653 -0.313734,0.169008 1.327326,0.164718 1.261575,0.761295 -0.472035,4.28298 -1.370865,2.784795 -1.430421,2.854173 -2.602965,3.032427 -0.852624,0.129621 -0.966303,0.194754 -0.392706,0.225 0.444012,0.0234 0.882228,0.163818 0.973812,0.312003 0.167787,0.271482 -2.486643,6.500745 -3.304821,7.75557 -0.313095,0.480189 -0.762807,0.688857 -1.5582,0.723012 l -1.118085,0.04801 1.002243,0.12303 c 0.886746,0.108849 0.981486,0.205722 0.822138,0.840618 -0.163512,0.651483 -3.111696,7.163108 -3.730866,8.24033 -0.221796,0.385878 -2.177685,0.471375 -13.726085,0.6 l -13.46743,0.15 0.9,0.637002 c 5.63415,3.987741 18.214392,6.876405 33.15,7.61187 6.224436,0.306507 17.323188,0.09874 24.75,-0.463305 z m -18.525,-8.458938 c -1.44375,-0.05499 -3.80625,-0.05499 -5.25,0 -1.44375,0.055 -0.2625,0.09999 2.625,0.09999 2.8875,0 4.06875,-0.04499 2.625,-0.09999 z m -22.05,-0.30141 c -4.33125,-0.04685 -11.41875,-0.04685 -15.75,0 -4.33125,0.04685 -0.7875,0.08518 7.875,0.08518 8.6625,0 12.20625,-0.03833 7.875,-0.08518 z M 140.96844,72.236067 c 0.11355,-0.113556 -1.50354,-0.206463 -3.59354,-0.206463 -3.56625,0 -3.8,-0.03595 -3.8,-0.584424 0,-0.321435 0.70215,-1.428143 1.56033,-2.459354 1.74651,-2.098641 1.54873,-1.709175 8.48347,-16.705878 l 5.0402,-10.899655 -0.3692,-1.550344 c -0.20306,-0.852689 -0.32321,-2.022844 -0.267,-2.600344 l 0.1022,-1.05 6.66447,-0.15 c 5.2797,-0.118832 6.6155,-0.229095 6.42879,-0.530661 -0.1819,-0.293817 -1.83832,-0.362259 -7.26052,-0.3 -8.06874,0.09265 -7.64851,-0.0939 -6.71723,2.981895 l 0.52934,1.748275 -1.14125,2.475246 c -0.62768,1.361385 -2.45735,5.310245 -4.06594,8.775245 -1.60858,3.465 -3.82868,8.2575 -4.93354,10.65 -1.10487,2.3925 -2.38078,4.755 -2.83535,5.25 -1.23363,1.343328 -2.41877,3.010881 -2.41877,3.403317 0,0.190677 0.2025,0.346683 0.45,0.346683 0.2475,0 0.45,0.263291 0.45,0.585092 0,0.321801 0.19306,0.693051 0.42902,0.825 0.52001,0.290778 6.97333,0.287553 7.26452,-0.0036 z m -86.203155,-3.54686 c 0.606423,-0.91362 1.525422,-2.594532 2.042217,-3.735363 1.139685,-2.515881 1.872843,-4.105335 7.09239,-15.376011 3.871455,-8.359711 4.058571,-8.850464 3.725592,-9.771298 -0.453543,-1.254255 -0.448848,-2.958667 0.0094,-3.41693 0.432252,-0.43225 28.780551,-0.510435 30.615,-0.08444 0.61875,0.143688 1.125,0.210711 1.125,0.14894 0,-0.06177 -0.537027,-0.386281 -1.193397,-0.721134 -1.159485,-0.591526 -1.630458,-0.606617 -16.575,-0.531097 l -15.381603,0.07773 -0.09678,0.682006 c -0.05323,0.375102 0.121017,1.33774 0.387216,2.139195 l 0.484002,1.457189 -3.732555,8.060805 c -7.45788,16.106004 -8.804658,18.894525 -10.037259,20.782317 -1.358319,2.080329 -1.49751,2.57109 -0.804621,2.836976 0.2475,0.09497 0.455925,0.413166 0.463167,0.707097 0.0072,0.293928 0.184497,0.05533 0.393897,-0.530223 0.2094,-0.585548 0.876897,-1.81214 1.483323,-2.72576 z m 13.52049,2.581802 c -0.02151,-0.490271 -0.138969,-1.578182 -0.261003,-2.417576 -0.215226,-1.480392 -0.147042,-1.682865 2.273157,-6.75 1.372272,-2.873106 2.620005,-5.392578 2.772738,-5.598828 0.194985,-0.263307 1.337313,-0.375 3.835248,-0.375 3.445263,0 3.562245,0.0213 3.706221,0.675 0.08176,0.37125 0.425241,3.5775 0.763278,7.125 0.338037,3.5475 0.683478,6.881553 0.767643,7.409006 l 0.153027,0.959007 13.314372,-0.05901 c 7.322904,-0.03245 13.414924,-0.159546 13.537824,-0.282426 0.1229,-0.12288 0.0548,-1.135379 -0.15131,-2.249999 l -0.37478,-2.026581 1.56071,-3.15 c 0.85839,-1.7325 1.87532,-3.85875 2.25984,-4.725 l 0.69914,-1.575 10.44151,-0.0066 c 9.45063,-0.006 10.55563,-0.05843 11.64408,-0.552906 1.81404,-0.824103 2.74531,-2.121348 5.69743,-7.936488 2.61377,-5.148651 2.7,-5.383653 2.7,-7.358244 0,-1.681944 -0.13156,-2.232976 -0.75,-3.141384 -1.50185,-2.206007 -0.99041,-2.144298 -18.56194,-2.239652 l -15.71193,-0.08526 0.1492,0.685262 c 0.0821,0.376895 0.32028,1.293214 0.52937,2.036266 l 0.38016,1.351004 -5.17634,10.948997 c -2.84698,6.021948 -5.885018,12.448452 -6.751193,14.281125 -1.305666,2.762556 -1.711164,3.366336 -2.372253,3.53226 -0.930951,0.233652 -1.879914,-0.19134 -2.096847,-0.939072 -0.08382,-0.288912 -0.300279,-1.875306 -0.481014,-3.525306 -0.180732,-1.65 -0.458793,-3.984264 -0.61791,-5.187255 -0.488283,-3.691602 -0.565089,-3.508473 1.706646,-4.06908 2.18601,-0.539451 3.743184,-1.550232 4.626963,-3.003414 0.314505,-0.517137 1.281162,-2.560251 2.148118,-4.540251 1.40762,-3.214756 1.57644,-3.824726 1.57763,-5.7 0.001,-1.816711 -0.11435,-2.270515 -0.85626,-3.364019 -0.50393,-0.742748 -1.378086,-1.515982 -2.119719,-1.875 -1.217697,-0.589478 -1.786071,-0.610981 -16.149696,-0.610981 -10.567659,0 -14.947179,0.09644 -15.092985,0.332356 -0.112971,0.182795 0.02301,1.094045 0.302175,2.025 l 0.507582,1.692644 -2.30073,4.95 c -1.265403,2.7225 -4.047603,8.73 -6.182664,13.35 -2.135064,4.62 -4.262571,8.94 -4.727793,9.6 -0.465222,0.66 -1.068822,1.635627 -1.34133,2.16806 l -0.495474,0.968061 5.329116,0.09314 c 2.931015,0.05123 6.206616,0.08423 7.279116,0.07334 l 1.95,-0.0198 -0.03912,-0.891402 z m 47.660865,-18.08654 c -0.147,-0.383685 1.35004,-3.840912 3.92091,-9.054864 l 1.25735,-2.55 5.05151,0 5.05151,0 0.72349,0.841729 c 1.11746,1.300091 0.99914,3.275886 -0.35753,5.969858 -2.44207,4.849311 -2.78081,5.021739 -10.05261,5.117061 -4.27699,0.05606 -5.47567,-0.01332 -5.59463,-0.323784 z m 11.56521,-0.924867 c 1.32136,-0.676677 2.03143,-1.587894 3.48203,-4.46841 1.25613,-2.494328 1.33967,-3.48463 0.39372,-4.66674 l -0.68431,-0.855154 0.11283,1.183072 c 0.0881,0.924128 -0.14825,1.702257 -1.07994,3.555153 -1.31603,2.617221 -2.41425,3.896016 -3.87665,4.514082 -1.25758,0.531501 -7.90327,0.569364 -8.42463,0.048 -0.25075,-0.250743 -0.36,-0.258189 -0.36,-0.02454 0,0.184506 -0.0819,0.549006 -0.1821,0.81 -0.16141,0.420642 0.36807,0.474537 4.66195,0.474537 4.16853,0 4.99927,-0.07949 5.9571,-0.570003 z m -1.95232,-1.641333 c 0.53095,-0.226236 1.24949,-0.732486 1.59676,-1.125 1.04298,-1.178868 3.22047,-5.565501 3.02087,-6.085642 -0.15468,-0.403084 -0.78844,-0.478022 -4.04271,-0.478022 l -3.85928,0 -1.77513,3.79239 c -0.97633,2.085813 -1.82014,3.908313 -1.87514,4.05 -0.16894,0.43521 5.86646,0.301419 6.93463,-0.153726 z m 4.63412,-8.469914 c -0.0997,-0.09969 -0.35844,-0.110345 -0.575,-0.02369 -0.23932,0.09577 -0.16824,0.166855 0.18125,0.18125 0.31625,0.01303 0.49344,-0.05788 0.39375,-0.157566 z m -54.018751,9.281249 c -0.429225,-0.429225 -0.123948,-1.298277 1.963752,-5.59032 l 2.16375,-4.448397 4.878717,0.09436 c 4.613466,0.08923 4.915827,0.131519 5.56125,0.777833 1.036698,1.038131 0.883572,2.831649 -0.444252,5.203411 -2.098566,3.748461 -3.026214,4.163115 -9.313581,4.163115 -2.5353,0 -4.699638,-0.09 -4.809636,-0.200001 z m 10.441035,-1.12692 c 1.597749,-0.667581 4.058964,-4.375281 4.058964,-6.114631 0,-0.476 -0.23625,-1.078567 -0.525,-1.339037 -0.488952,-0.441063 -0.526686,-0.408207 -0.549534,0.478504 -0.02547,0.988069 -1.484787,3.665882 -2.749518,5.045279 -1.051245,1.146552 -2.807343,1.529709 -6.463284,1.410201 -2.756835,-0.09012 -3.205047,-0.03598 -3.490377,0.421605 -0.306321,0.491241 -0.03722,0.525 4.184805,0.525 3.223743,0 4.803939,-0.121905 5.533944,-0.426921 z m -1.336356,-1.930608 c 1.053588,-0.561939 3.15156,-3.503458 3.346797,-4.692471 0.0934,-0.568804 -0.09134,-0.60437 -3.553107,-0.684046 l -3.65163,-0.08405 -1.37337,2.899214 c -0.755352,1.594566 -1.37337,2.948637 -1.37337,3.009045 0,0.06041 1.250856,0.109833 2.77968,0.109833 2.134116,0 3.022452,-0.129483 3.825,-0.557529 z m -3.711546,-6.280703 c -0.306276,-0.06492 -0.687762,0.01286 -0.847746,0.172845 -0.187842,0.187841 0.0094,0.229653 0.556866,0.118036 0.627888,-0.128018 0.703326,-0.203457 0.29088,-0.290881 z m 7.525617,0.05698 c -0.09969,-0.09969 -0.35844,-0.110345 -0.575001,-0.02369 -0.239319,0.09577 -0.168234,0.166855 0.181251,0.18125 0.316248,0.01303 0.493437,-0.05788 0.39375,-0.157566 z m 53.663551,28.507799 0.0323,-1.476549 -0.12797,1.345071 c -0.0704,0.73979 -0.28742,1.458818 -0.4823,1.597838 -0.24497,0.174762 -0.21545,0.215337 0.0957,0.131478 0.31657,-0.08533 0.45957,-0.559095 0.4823,-1.597838 z m 17.3677,1.07345 c 0.29864,-0.33 0.47549,-0.6 0.39299,-0.6 -0.0825,0 -0.39435,0.27 -0.69299,0.6 -0.29865,0.33 -0.4755,0.6 -0.393,0.6 0.0825,0 0.39435,-0.27 0.693,-0.6 z m 21.91233,0.280041 c 0.30782,-0.498063 0.0315,-0.567129 -0.39916,-0.09978 -0.21276,0.230859 -0.25447,0.419742 -0.0927,0.419742 0.16176,0 0.3831,-0.143982 0.49186,-0.319959 z M 46.781928,71.354604 c 0.319365,-0.426959 2.79297,-5.786411 2.79297,-6.051404 0,-0.09548 -6.822297,-0.173595 -15.160662,-0.173595 l -15.160661,0 -0.557302,1.275 c -0.306516,0.70125 -0.971073,2.18625 -1.476792,3.3 l -0.919489,2.024999 15.100719,0 c 11.730979,0 15.163315,-0.08368 15.381217,-0.375 z m 63.297902,-0.28125 c -0.0958,-0.239318 -0.16685,-0.168233 -0.18125,0.181251 -0.013,0.316248 0.0579,0.493437 0.15757,0.39375 0.0997,-0.09969 0.11034,-0.35844 0.0237,-0.575001 z m 36.47007,-0.13724 c 2.59255,-0.791181 2.625,-0.813057 2.625,-1.769655 l 0,-0.968571 -2.84614,0.94086 c -2.67414,0.883995 -2.84638,0.990717 -2.85,1.765857 -0.002,0.453749 0.0974,0.826706 0.22114,0.828794 0.12375,0.0021 1.40625,-0.356694 2.85,-0.797285 z M 81.263478,70.004605 c -0.09225,-0.78375 -0.311931,-2.91 -0.488181,-4.725 -0.17625,-1.815 -0.47052,-4.48125 -0.653931,-5.925 l -0.333471,-2.625 -3.1815,0.06226 -3.181497,0.06226 2.758272,0.09877 2.758275,0.09878 0.156234,1.263963 c 0.225771,1.826544 1.380657,12.622416 1.378794,12.888962 -9e-4,0.12375 0.213594,0.225 0.476577,0.225 0.393966,0 0.44862,-0.25089 0.310428,-1.424999 z m 60.600042,-0.700467 c -0.21819,-2.347554 -0.26627,-2.210352 3.72379,-10.624533 0.86069,-1.815 2.28801,-4.828401 3.17182,-6.696444 1.41352,-2.987625 1.68872,-3.384834 2.28635,-3.3 l 0.67942,0.09644 0.0786,11.325 0.0786,11.324999 3.6714,-0.0015 3.67139,-0.0015 4.65,-5.745701 c 2.5575,-3.160137 5.1225,-6.307533 5.7,-6.994218 0.5775,-0.686682 2.0625,-2.487879 3.3,-4.002657 1.62485,-1.988922 2.43754,-2.75421 2.925,-2.754384 0.98566,-3e-4 0.86828,0.730461 -0.63396,3.947034 -0.71993,1.5417 -1.6159,3.477927 -1.99104,4.302927 -0.37515,0.825 -1.27111,2.761227 -1.99104,4.302726 -0.71993,1.541502 -1.30896,2.924862 -1.30896,3.074136 0,0.149277 -0.50043,0.845547 -1.11206,1.547274 -2.26683,2.600747 -2.88914,2.325863 5.26556,2.325863 l 7.2465,0 0,-0.745694 c 0,-0.410133 -0.15864,-1.338828 -0.35253,-2.063766 -0.41785,-1.562274 -0.53,-1.264077 3.94683,-10.493973 1.66823,-3.439389 3.48497,-7.219389 4.0372,-8.4 0.55224,-1.180611 2.16607,-4.546626 3.58628,-7.480032 1.42022,-2.933407 2.58222,-5.365054 2.58222,-5.403662 0,-0.03861 -2.43215,-0.09398 -5.40478,-0.123039 -5.18006,-0.05065 -5.43444,-0.02555 -6.1184,0.603662 -0.3925,0.361078 -3.0566,3.496461 -5.92023,6.967517 -13.06698,15.838744 -14.68533,17.738989 -15.1074,17.738989 -0.39174,0 -0.44919,-1.600098 -0.44919,-12.510747 l 0,-12.510748 -0.975,-0.151431 c -1.4269,-0.221618 -12.19382,-0.05825 -12.44084,0.188762 -0.11567,0.115675 0.0258,1.126891 0.31438,2.247145 0.61776,2.398073 0.92089,1.428202 -3.24645,10.387018 -1.7653,3.795 -4.36755,9.3975 -5.78277,12.45 -1.64004,3.53742 -3.00008,6.039546 -3.7505,6.9 -2.17696,2.496161 -2.25964,2.399999 2.0637,2.399999 l 3.80364,0 -0.19754,-2.125466 z M 33.939103,64.529605 c 12.029789,-0.117831 15.26507,-0.229308 15.08546,-0.519801 -0.176121,-0.284847 -3.809103,-0.375699 -15.814157,-0.395472 l -15.585508,-0.02567 -0.610674,1.145472 c -0.33587,0.630009 -1.103282,2.25099 -1.70536,3.602181 -1.078704,2.420838 -1.085119,2.458242 -0.439327,2.561883 0.565243,0.09071 0.868505,-0.329613 2.20541,-3.056709 l 1.550051,-3.161883 15.314105,-0.15 z m 135.922357,0.97377 c 0.40511,-0.948075 1.36704,-3.07377 2.13764,-4.72377 0.77059,-1.65 1.95394,-4.215 2.62968,-5.7 l 1.22861,-2.7 -0.96625,1.177521 c -1.09908,1.339401 -5.35515,6.442629 -7.33707,8.797479 -0.72906,0.86625 -1.25255,1.575 -1.16331,1.575 0.0892,0 0.86003,-0.838452 1.71286,-1.863231 1.36105,-1.635468 2.37128,-2.396079 2.37128,-1.785363 0,0.109074 -0.43875,1.257657 -0.975,2.552409 -0.923,2.228547 -1.05891,2.395836 -2.54833,3.136812 -1.87393,0.932271 -2.57438,0.645894 -1.5635,-0.639231 0.3467,-0.440769 0.55733,-0.801396 0.46806,-0.801396 -0.0893,0 -0.73536,0.77625 -1.43577,1.725 -0.7004,0.94875 -1.77732,2.272134 -2.39315,2.940855 l -1.11969,1.215852 1.70869,-0.834132 c 2.63306,-1.285383 3.08467,-1.148415 2.31979,0.703554 -0.15396,0.372765 -0.0282,0.526605 0.49096,0.600588 0.55027,0.07841 1.01529,-0.297621 2.19794,-1.777362 0.825,-1.032249 1.83145,-2.652513 2.23656,-3.600585 z m -100.881629,3.76998 c -0.09577,-0.239319 -0.166854,-0.168234 -0.181248,0.181251 -0.01302,0.316248 0.05788,0.493437 0.157566,0.39375 0.09969,-0.09969 0.110343,-0.35844 0.02367,-0.575001 z m 78.030999,-1.12467 2.16407,-0.644487 -0.003,-6.212298 -0.003,-6.212295 -2.96307,6.333543 c -2.12643,4.545207 -2.9214,6.551562 -2.81547,7.10568 0.12464,0.652011 0.24945,0.733416 0.80225,0.523242 0.36006,-0.136893 1.62849,-0.538917 2.81872,-0.893385 z m -51.286596,0.250566 c 0.216513,-0.346698 1.445532,-2.877948 2.731149,-5.625 1.285617,-2.747055 2.819407,-6.007146 3.408427,-7.244646 7.51386,-15.786217 7.08627,-14.778585 6.68211,-15.746978 -0.20727,-0.496662 -0.4703,-1.40198 -0.5845,-2.011818 -0.17266,-0.922063 -0.10813,-1.162049 0.3832,-1.425 0.97361,-0.521062 29.47733,-0.425718 31.52504,0.105451 1.61837,0.4198 1.62229,0.419155 0.89038,-0.146947 -0.40433,-0.31273 -1.20764,-0.704222 -1.78514,-0.869981 -0.64232,-0.184364 -7.09012,-0.30203 -16.60651,-0.303053 l -15.55651,-0.0017 0.15379,1.125 c 0.0846,0.61875 0.31529,1.665 0.51266,2.325 0.39268,1.313105 1.26809,-0.678268 -11.125764,25.308795 -1.336842,2.803047 -1.879791,3.66621 -2.22324,3.534417 -0.535974,-0.205674 -0.543525,-0.166617 -0.161853,0.837258 0.35493,0.933537 1.217973,1.00191 1.756761,0.139176 z M 68.682795,67.610314 c -0.07606,-0.291891 -0.143298,-0.125709 -0.149412,0.369291 -0.0061,0.495 0.05612,0.733818 0.138297,0.530709 0.08218,-0.203109 0.08718,-0.608109 0.01113,-0.9 z M 181.47983,67.173355 c -0.0958,-0.239319 -0.16685,-0.168234 -0.18125,0.181251 -0.013,0.316248 0.0579,0.493437 0.15757,0.39375 0.0997,-0.09969 0.11034,-0.35844 0.0237,-0.575001 z M 16.016244,64.829605 c 0.516442,-1.155 1.118661,-2.1 1.338265,-2.1 0.550797,0 1.022967,-0.975339 0.829788,-1.714056 -0.08789,-0.336084 0.130961,-1.180992 0.486331,-1.877574 0.355369,-0.696582 0.594682,-1.317957 0.531805,-1.380834 -0.244152,-0.244152 -2.350746,2.857233 -3.186629,4.691442 -0.804241,1.76478 -1.466945,4.481022 -1.093271,4.481022 0.0851,0 0.577269,-0.945 1.093711,-2.1 z m 77.563587,0.24375 c -0.09577,-0.239319 -0.166854,-0.168234 -0.181248,0.181251 -0.01302,0.316248 0.05788,0.493437 0.157566,0.39375 0.09969,-0.09969 0.110343,-0.35844 0.02367,-0.575001 z m 6.072978,-10.249827 c 0.01215,-0.140844 -0.454164,0.162078 -1.036251,0.673158 -1.122585,0.985641 -3.15924,2.12985 -3.804708,2.137512 -1.123734,0.01335 -1.187742,0.364023 -0.798504,4.374615 l 0.375672,3.870792 2.620851,-5.4 c 1.441467,-2.97 2.63079,-5.515236 2.64294,-5.656077 z m -48.972978,9.949827 c -0.09577,-0.239319 -0.166854,-0.168234 -0.181248,0.181251 -0.01302,0.316248 0.05788,0.493437 0.157566,0.39375 0.09969,-0.09969 0.110343,-0.35844 0.02367,-0.575001 z M 168.09763,63.887119 c 0.43474,-0.81231 0.22248,-0.691938 -0.93888,0.532428 -0.94773,0.999141 -0.96411,1.045584 -0.19667,0.557514 0.46045,-0.292833 0.97145,-0.783309 1.13555,-1.089942 z M 93.282795,62.210314 c -0.07606,-0.291891 -0.143298,-0.125709 -0.149412,0.369291 -0.0061,0.495 0.05612,0.733818 0.138297,0.530709 0.08218,-0.203109 0.08718,-0.608109 0.01113,-0.9 z m -59.082897,0.594861 c -2.59875,-0.04994 -6.85125,-0.04994 -9.45,0 -2.59875,0.04994 -0.4725,0.09081 4.725,0.09081 5.1975,0 7.32375,-0.04086 4.725,-0.09081 z m 0.3,-0.6 c -2.59875,-0.04994 -6.85125,-0.04994 -9.45,0 -2.59875,0.04994 -0.4725,0.09081 4.725,0.09081 5.1975,0 7.32375,-0.04086 4.725,-0.09081 z m 18.088734,-3.255441 c 0.652446,-1.418928 1.186266,-2.633928 1.186266,-2.7 0,-0.06607 -6.80067,-0.120129 -15.1126,-0.120129 l -15.1126,0 -1.2374,2.578812 c -0.68057,1.418346 -1.2374,2.633346 -1.2374,2.7 0,0.06665 6.82368,0.121188 15.163734,0.121188 l 15.163737,0 1.186263,-2.579871 z M 167.18413,55.679605 c 4.21809,-5.116815 7.60764,-9.21947 12.70256,-15.375 l 3.53841,-4.275 5.66548,0 c 4.77589,0 5.63977,-0.06702 5.50171,-0.426804 -0.0901,-0.234742 -0.32209,-0.484472 -0.51559,-0.554955 -0.19349,-0.07048 -2.95546,-0.0631 -6.13771,0.01641 l -5.78591,0.144556 -3.21409,3.892537 c -1.76775,2.140895 -5.69413,6.881824 -8.72529,10.5354 -3.03115,3.653573 -5.75058,6.94661 -6.04317,7.31786 -0.59392,0.753588 -1.06953,0.863601 -1.29695,0.3 -0.0832,-0.20625 -0.16197,0.565179 -0.175,1.714287 -0.0199,1.759389 0.0395,2.019921 0.37613,1.65 0.21989,-0.241608 2.06914,-2.464287 4.10942,-4.939287 z m -74.202433,3.525 c -0.07546,-0.28875 -0.137199,-0.0525 -0.137199,0.525 0,0.5775 0.06174,0.81375 0.137199,0.525 0.07546,-0.28875 0.07546,-0.76125 0,-1.05 z m 31.012313,-0.303879 c -5.51699,-0.04364 -10.13411,0.02376 -10.26027,0.149766 -0.12617,0.126012 4.38773,0.161718 10.03088,0.07935 l 10.26028,-0.149763 -10.03089,-0.07935 z M 92.883387,57.479605 c 0.09497,-0.2475 0.04192,-0.45 -0.117903,-0.45 -0.159822,0 -0.290586,0.2025 -0.290586,0.45 0,0.2475 0.05306,0.45 0.117903,0.45 0.06485,0 0.195609,-0.2025 0.290586,-0.45 z m 44.891513,-0.6 c 0.55973,-0.5775 0.9502,-1.05 0.8677,-1.05 -0.0825,0 -0.60797,0.4725 -1.1677,1.05 -0.55974,0.5775 -0.9502,1.05 -0.8677,1.05 0.0825,0 0.60796,-0.4725 1.1677,-1.05 z m 54.85653,-5.090007 c 3.58061,-3.399297 6.29612,-7.469936 7.21132,-10.809993 0.82419,-3.007967 0.1999,-6.369114 -1.74065,-9.371528 -3.73764,-5.782848 -14.46364,-10.59258 -28.2272,-12.657583 -9.36919,-1.405698 -12.92586,-1.63973 -25.05,-1.648316 -7.58452,-0.0054 -13.37984,0.131507 -15.75,0.371997 -2.0625,0.209272 -5.91,0.586488 -8.55,0.838257 -22.308893,2.127531 -47.935127,7.866483 -67.004753,15.005599 l -4.304754,1.611574 -9.232002,0 -9.232002,0 -0.61915,1.425 -0.619151,1.425 0.655905,0.17232 c 0.515994,0.135563 0.764069,-0.02998 1.162985,-0.7761 l 0.50708,-0.948422 10.142921,-0.198417 c 5.578605,-0.10913 12.471669,-0.198634 15.317919,-0.198899 4.399785,-4.1e-4 5.175,-0.06789 5.175,-0.450482 0,-0.371428 -0.549999,-0.45 -3.15,-0.45 -2.49075,0 -3.15,-0.08736 -3.15,-0.417426 0,-0.532291 1.21332,-1.010133 8.070597,-3.178442 17.576304,-5.557726 38.724855,-9.825664 57.179405,-11.539234 17.14397,-1.591879 36.4645,-1.360697 48.65794,0.582222 6.09128,0.970594 12.62227,2.773927 16.96126,4.683333 10.09179,4.440973 13.56016,10.62415 10.15607,18.105559 -1.476,3.243902 -7.13491,9.493097 -8.21952,9.076895 -0.26737,-0.1026 -0.82325,0.696876 -1.6659,2.395953 l -1.26464,2.549934 2.33739,-1.894404 c 1.28557,-1.041921 3.19534,-2.708898 4.24393,-3.704397 z m -13.90653,-13.89174 3,-3.655521 4.35,-0.0178 4.35,-0.0178 -1.5535,-1.449555 c -7.37413,-6.88071 -30.03099,-10.206007 -57.2465,-8.401941 -17.20529,1.140508 -33.848933,3.774402 -51.600002,8.165819 l -6.3,1.55855 12.007494,0.15 12.007497,0.15 1.544541,0.991537 c 2.27311,1.459253 3.87049,3.332732 4.42039,5.184423 0.583,1.96318 0.58851,2.785171 0.0311,4.637362 -0.24145,0.802274 -0.39989,1.497786 -0.3521,1.545582 0.0478,0.0478 0.86351,-1.562639 1.81269,-3.578744 l 1.7258,-3.665645 -0.4737,-1.466708 c -0.65265,-2.020824 -0.61128,-3.103061 0.13386,-3.501851 0.42072,-0.225162 5.51787,-0.2976 16.575,-0.235554 17.6548,0.09907 16.28101,-0.0496 19.22071,2.079911 1.92191,1.392224 2.68956,2.698465 2.84447,4.840197 l 0.13423,1.855656 0.70914,-1.606823 c 0.67879,-1.538066 0.68987,-1.671682 0.25901,-3.122534 -0.5767,-1.941986 -0.57024,-3.043821 0.0213,-3.635381 0.67655,-0.676529 15.42859,-0.716072 15.42859,-0.04136 0,0.246158 0.3528,0.470667 0.825,0.525 l 0.825,0.09493 0.0789,10.451016 0.0789,10.451016 6.07109,-7.314129 c 3.33909,-4.022771 7.42108,-8.959113 9.07108,-10.96965 z m -80.381129,16.656747 0.881127,-0.975 -0.975,0.881127 c -0.908838,0.821334 -1.112895,1.068873 -0.881127,1.068873 0.05163,0 0.49038,-0.43875 0.975,-0.975 z M 56.398035,50.8096 57.305721,48.779605 43.015308,48.559429 c -7.859725,-0.121095 -14.69541,-0.14946 -15.19041,-0.06303 -0.771896,0.134778 -1.035982,0.452865 -1.855342,2.234733 l -0.955342,2.077587 15.23807,0.01545 15.238068,0.01545 0.907683,-2.029992 z M 192.41634,48.463837 c 3.77434,-3.99081 5.85533,-8.589513 5.2121,-11.518081 -0.20327,-0.925522 -0.22142,-0.907592 -1.2469,1.232229 -0.57234,1.19428 -1.31062,2.9729 -1.64062,3.95249 -0.33,0.97959 -1.06031,2.500642 -1.6229,3.380117 -1.15113,1.799514 -2.62538,4.619013 -2.41516,4.619013 0.0759,0 0.847,-0.749595 1.71348,-1.665768 z M 58.574898,48.029605 c 0,-0.165 -0.30375,-0.290511 -0.675,-0.278913 -0.64407,0.02013 -0.647508,0.0329 -0.075,0.278913 0.33,0.141807 0.63375,0.267318 0.675,0.278913 0.04125,0.0116 0.075,-0.113913 0.075,-0.278913 z m 0.893904,-3.888048 c 0.333351,-0.653427 0.606096,-1.262164 0.606096,-1.35275 0,-0.09058 -6.824046,-0.129713 -15.164544,-0.08695 l -15.164544,0.07775 -0.570789,1.275 -0.570788,1.275 15.129236,0 15.129234,0 0.606099,-1.188048 z M 194.14579,40.979605 c 0,-0.165 -0.4594,0.5775 -1.02089,1.65 -0.56149,1.0725 -1.02089,2.085 -1.02089,2.25 0,0.165 0.4594,-0.5775 1.02089,-1.65 0.56149,-1.0725 1.02089,-2.085 1.02089,-2.25 z M 45.077832,41.933571 c 8.660886,0.02968 15.443316,-0.01346 15.072066,-0.09587 -0.37125,-0.08241 -0.675,-0.342942 -0.675,-0.578966 0,-0.362294 -1.352322,-0.429135 -8.682294,-0.429135 -8.466561,0 -9.904788,-0.153901 -8.681142,-0.928947 0.253212,-0.160381 -0.648435,-0.263645 -2.326575,-0.266459 -2.489751,-0.0042 -2.754341,0.05021 -2.896914,0.595406 -0.147759,0.565031 -0.409205,0.6 -4.485873,0.6 l -4.328969,0 -0.76934,1.783037 -0.769341,1.783037 0.645224,0.09357 c 0.496635,0.07202 0.818617,-0.217691 1.398156,-1.258036 l 0.752933,-1.351608 15.747069,0.05397 z m 99.508788,-0.278966 c -0.0715,-0.37125 -0.13001,-0.0675 -0.13001,0.675 0,0.7425 0.0585,1.04625 0.13001,0.675 0.0715,-0.37125 0.0715,-0.97875 0,-1.35 z m -82.296519,-3.45 c 0.10185,-0.28875 0.266154,-0.700677 0.365121,-0.915393 0.146802,-0.318503 -2.613894,-0.37073 -14.991579,-0.283614 -8.344335,0.05873 -15.224607,0.166905 -15.289495,0.240393 -0.06489,0.07349 -0.276014,0.437364 -0.469169,0.808614 l -0.351192,0.675 15.275565,0 c 14.277615,0 15.287664,-0.0343 15.460749,-0.525 z m 1.684797,-1.875 c 0,-0.165 -0.142968,-0.3 -0.317706,-0.3 -0.174738,0 -0.23427,0.135 -0.132294,0.3 0.101976,0.165 0.244944,0.3 0.317706,0.3 0.07276,0 0.132294,-0.135 0.132294,-0.3 z m 132.300002,0 c 0,-0.165 -0.14297,-0.3 -0.31771,-0.3 -0.17474,0 -0.23427,0.135 -0.13229,0.3 0.10197,0.165 0.24494,0.3 0.3177,0.3 0.0728,0 0.1323,-0.135 0.1323,-0.3 z M 68.584743,34.254953 c 1.21131,0.03537 2.323383,-0.0069 2.471271,-0.09382 1.371036,-0.806288 17.864586,-4.651494 27.290643,-6.362376 29.178973,-5.296147 56.317153,-6.10882 75.079513,-2.248313 7.82673,1.610411 14.39796,4.542048 17.1135,7.634874 0.66813,0.760958 1.16357,1.044288 1.82606,1.044288 0.52434,0 0.90917,-0.157755 0.90917,-0.372699 0,-0.204984 -0.99307,-1.330971 -2.20683,-2.502194 -1.67979,-1.620935 -2.87985,-2.456501 -5.025,-3.498766 -12.71842,-6.179519 -36.30669,-7.977145 -65.66817,-5.004472 -17.90396,1.812668 -39.073742,6.127963 -56.025002,11.42026 -1.067007,0.333127 -1.421436,1.344595 -0.3753,1.071024 0.329838,-0.08625 0.679425,-0.02783 0.776865,0.12983 0.09744,0.157661 0.504252,-0.06628 0.904029,-0.497643 0.670122,-0.723074 0.898791,-0.77928 2.929251,-0.719993 z M 196.81909,34.18416 c -1.54716,-2.775745 -4.72495,-5.494268 -8.83113,-7.554824 -5.62062,-2.82053 -16.30713,-5.293923 -27.56306,-6.379473 -6.34599,-0.612023 -21.98503,-0.701453 -29.85,-0.170694 -15.47413,1.044255 -32.558555,3.647855 -47.850002,7.292154 -6.953088,1.65708 -18.411276,4.902793 -21.45,6.076054 l -1.95,0.752901 1.375455,0.01466 c 0.772956,0.0082 2.809833,-0.438149 4.65,-1.019066 13.874859,-4.380108 35.453217,-8.86539 51.274547,-10.657937 18.48223,-2.094026 35.59304,-2.357368 48.9,-0.752589 14.3252,1.727577 24.59978,5.796503 27.93921,11.064457 0.59648,0.940945 1.06805,1.361255 1.53579,1.368845 0.381,0.0062 0.675,0.198271 0.675,0.441027 0,0.238873 0.36677,0.485635 0.825,0.555051 0.45375,0.06874 0.86738,0.145204 0.91919,0.169926 0.0518,0.02472 -0.21819,-0.515501 -0.6,-1.200496 z M 72.293649,34.348355 c -0.09969,-0.09969 -0.35844,-0.110345 -0.575001,-0.02369 -0.239319,0.09577 -0.168234,0.166855 0.181251,0.181251 0.316248,0.01303 0.493437,-0.05788 0.39375,-0.157566 z"
     id="path3350"
     inkscape:connector-curvature="0" />
</svg>
