<?xml version="1.0" encoding="UTF-8" standalone="no"?>
<!-- Created with Inkscape (http://www.inkscape.org/) -->

<svg
   xmlns:dc="http://purl.org/dc/elements/1.1/"
   xmlns:cc="http://creativecommons.org/ns#"
   xmlns:rdf="http://www.w3.org/1999/02/22-rdf-syntax-ns#"
   xmlns:svg="http://www.w3.org/2000/svg"
   xmlns="http://www.w3.org/2000/svg"
   xmlns:sodipodi="http://sodipodi.sourceforge.net/DTD/sodipodi-0.dtd"
   xmlns:inkscape="http://www.inkscape.org/namespaces/inkscape"
   id="svg3336"
   version="1.1"
   inkscape:version="0.91 r13725"
   width="400"
   height="252"
   viewBox="0 0 400 252"
   sodipodi:docname="Bens aerial solutions.svg"
   inkscape:export-filename="C:\Users\benfi\Desktop\Logos\Ben's Aerial Solutions\Logo.png"
   inkscape:export-xdpi="90"
   inkscape:export-ydpi="90">
  <metadata
     id="metadata3342">
    <rdf:RDF>
      <cc:Work
         rdf:about="">
        <dc:format>image/svg+xml</dc:format>
        <dc:type
           rdf:resource="http://purl.org/dc/dcmitype/StillImage" />
        <dc:title></dc:title>
      </cc:Work>
    </rdf:RDF>
  </metadata>
  <defs
     id="defs3340" />
  <sodipodi:namedview
     pagecolor="#ffffff"
     bordercolor="#666666"
     borderopacity="1"
     objecttolerance="10"
     gridtolerance="10"
     guidetolerance="10"
     inkscape:pageopacity="0"
     inkscape:pageshadow="2"
     inkscape:window-width="1920"
     inkscape:window-height="1017"
     id="namedview3338"
     showgrid="false"
     inkscape:zoom="2.3794704"
     inkscape:cx="176.0618"
     inkscape:cy="200.41244"
     inkscape:window-x="1912"
     inkscape:window-y="-8"
     inkscape:window-maximized="1"
     inkscape:current-layer="svg3336" />
  <path
     style="fill:#000000"
     d="m 511.97485,228.46427 c -14.86437,-17.91043 19.58938,-43.88213 58.48477,-44.08664 17.66376,-0.093 20.85695,-2.08039 37.02415,-23.04457 15.53663,-20.14655 19.80625,-22.967 35.02938,-23.14009 l 17.33623,-0.19715 -8.79254,23.14009 -8.79254,23.14009 33.69882,0 c 24.18034,0 35.31234,1.94418 39.41128,6.88311 8.30336,10.00495 2.21465,20.885 -11.68773,20.885 -9.92109,0 -11.51275,-1.62082 -9.08943,-9.25604 3.58875,-11.30717 -9.08938,-13.13991 -13.3889,-1.93548 -6.98882,18.2125 -3.80956,20.44756 29.08524,20.44756 30.44079,0 32.03126,-0.54528 34.89711,-11.96362 1.65146,-6.58002 1.65438,-16.21176 0.005,-21.40389 -3.22166,-10.15063 3.99694,-17.34937 17.51816,-17.46984 5.18157,-0.0463 7.02528,2.34872 5.28987,6.87117 -2.10575,5.48744 1.38401,6.94203 16.65517,6.94203 17.83611,0 19.08933,0.79935 16.32599,10.41304 -1.64619,5.72717 -4.00949,14.05761 -5.25174,18.51207 -1.77785,6.37496 0.60733,8.09904 11.20466,8.09904 11.69755,0 14.19085,-2.42805 19.00973,-18.51208 4.59867,-15.34891 7.5762,-18.51207 17.42578,-18.51207 8.966,0 11.18565,1.80798 9.05051,7.37197 -1.55589,4.05461 -4.08705,12.38504 -5.62485,18.51207 -2.50445,9.97857 -1.29603,11.14011 11.58976,11.14011 11.30042,0 14.38578,-1.98515 14.38578,-9.25604 0,-17.61988 16.18201,-27.76811 44.27806,-27.76811 24.52174,0 25.62145,0.50283 22.77286,10.41304 -1.64619,5.72717 -4.00949,14.05761 -5.25174,18.51207 -1.70117,6.09996 0.49807,8.09904 8.90991,8.09904 9.91682,0 12.29891,-3.89018 21.25399,-34.71014 9.04472,-31.12828 11.26742,-34.71014 21.53944,-34.71014 13.24979,0 13.62197,1.85704 5.21726,26.02923 -3.43019,9.86531 -7.63507,23.66412 -9.3442,30.664 -2.88131,11.80061 -2.07053,12.72705 11.13784,12.72705 8.25874,0 13.05084,1.9328 11.40294,4.59914 -3.583,5.79742 -118.29143,5.06384 -125.7193,-0.80403 -3.30755,-2.61289 -6.48015,-2.45322 -8.25301,0.4156 -1.63971,2.6531 -23.9822,4.6599 -51.88087,4.6599 l -49.00091,0 2.92936,-18.31927 c 2.27842,-14.23745 1.44162,-18.31945 -3.75365,-18.31945 -3.67668,0 -8.02924,4.23565 -9.67233,9.4126 -6.56193,20.67479 -20.4986,27.61154 -55.47462,27.61154 -38.86855,0 -51.12248,-6.36496 -47.61167,-24.73065 1.96839,-10.29697 0.69421,-12.29349 -7.84564,-12.29349 -7.88527,0 -11.45259,4.19502 -15.74207,18.51207 -4.59868,15.34892 -7.5762,18.51207 -17.42578,18.51207 -8.966,0 -11.18565,-1.80798 -9.05051,-7.37197 1.55589,-4.0546 4.08705,-12.38504 5.62485,-18.51207 4.05849,-16.17034 -11.51266,-14.76736 -28.08499,2.53041 -23.97698,25.02662 -59.81645,35.64625 -71.75451,21.26172 z m 53.12058,-19.89117 18.42937,-12.72705 -12.63176,-1.45524 c -16.11287,-1.8562 -37.70225,8.38805 -39.71622,18.84552 -2.3347,12.12319 12.58039,10.07261 33.91861,-4.66323 z m 346.41569,2.31401 c 4.08122,-15.22901 3.62633,-17.35507 -3.71315,-17.35507 -7.43302,0 -14.03905,15.90562 -9.59351,23.09867 4.76746,7.71393 10.34542,5.30625 13.30666,-5.7436 z M 623.10699,172.06409 c 6.53106,-17.178 3.15348,-17.79723 -8.81036,-1.61522 -8.28693,11.20864 -8.86029,13.82713 -3.02774,13.82713 3.95732,0 9.28445,-5.49536 11.8381,-12.21191 z m 462.55781,59.83681 c -37.4929,-13.78589 -25.4461,-47.6249 16.9547,-47.6249 24.4639,0 30.8507,8.1797 7.908,10.12791 -21.744,1.84639 -31.4042,15.04309 -18.1931,24.85329 11.8887,8.82827 37.1205,8.49987 46.222,-0.60164 8.9158,-8.91569 9.0145,-19.18865 0.3305,-34.37956 -15.8537,-27.73317 -1.7579,-46.28018 35.1732,-46.28018 24.7234,0 36.9578,9.47771 28.878,22.371 -7.4826,11.94043 -22.8247,11.97185 -31.1653,0.0639 -5.6307,-8.03887 -8.617,-9.21688 -12.789,-5.04486 -4.1721,4.17202 -3.5078,9.73471 2.8447,23.82203 11.2131,24.86625 6.7952,40.77511 -13.7017,49.33925 -15.6627,6.5443 -48.9274,8.33039 -62.4621,3.35374 z M 92.327814,199.83193 c 9.311686,-27.68 12.263806,-31.94189 23.009686,-33.21839 14.76611,-1.75411 14.87981,-0.63511 3.08798,30.38951 -8.04511,21.16689 -8.30373,24.2971 -2.00743,24.2971 15.50522,0 26.05167,-9.58574 23.17161,-21.06077 -2.25741,-8.99428 -0.13181,-12.40953 11.45157,-18.39952 8.95889,-4.63283 13.66863,-10.25389 12.72442,-15.18661 -1.27176,-6.64385 -8.69536,-8.03147 -48.95772,-9.15108 -45.557369,-1.26687 -47.263692,-1.68404 -42.592073,-10.41304 4.340998,-8.11125 9.880088,-9.09331 51.288193,-9.09331 25.53188,0 50.44991,2.15587 55.37339,4.79083 12.66141,6.7762 11.10084,21.42754 -3.7481,35.18909 -7.96815,7.38465 -12.19991,15.58508 -11.35798,22.00993 2.33108,17.78857 -14.5007,27.77912 -50.19997,29.79634 l -31.925774,1.80395 10.682198,-31.75403 z m 89.716386,25.72553 c -11.3441,-6.60733 -10.13518,-25.44637 2.18677,-34.07702 13.05831,-9.1464 42.34862,-9.33527 49.82952,-0.32119 8.30338,10.00481 2.21464,20.88486 -11.68775,20.88486 -9.92107,0 -11.51273,-1.62082 -9.08942,-9.25604 3.58876,-11.30717 -9.08936,-13.13991 -13.3889,-1.93548 -6.98066,18.19126 -3.79672,20.44756 28.85441,20.44756 l 31.66357,0 5.54635,-18.51208 c 4.53224,-15.12728 7.64402,-18.51207 17.0188,-18.51207 10.18234,0 11.11607,1.41992 8.30332,12.62676 l -3.16912,12.62681 15.26812,-12.84729 c 8.39747,-7.06601 18.63499,-12.1037 22.75003,-11.1949 7.91289,1.74754 8.0919,2.97781 3.35909,23.08572 -2.70629,11.49803 -1.7804,12.72705 9.58826,12.72705 8.89484,0 11.14009,1.44371 7.65898,4.92486 -2.70866,2.70864 -14.05888,4.27059 -25.2227,3.47101 -16.9073,-1.21101 -20.04822,-2.90459 -18.8034,-10.13888 1.41111,-8.20071 0.60639,-8.13619 -14.43032,1.15701 -13.17327,8.14151 -23.02711,9.81774 -57.03068,9.7013 -22.60824,-0.0774 -44.75046,-2.26348 -49.20493,-4.85799 z m 202.47581,0.37071 c -4.23014,-6.84452 1.63615,-13.88406 11.57004,-13.88406 4.79038,0 9.9969,2.08261 11.57005,4.62802 4.85465,7.855 11.57004,5.11766 11.57004,-4.71618 0,-7.8587 -2.02332,-8.85215 -12.72705,-6.24908 -12.3804,3.0109 -12.50645,2.84577 -4.62802,-6.06122 4.45447,-5.03607 8.09904,-11.27293 8.09904,-13.85976 0,-7.0755 18.07037,-22.00632 21.94468,-18.13202 3.07992,3.0799 5.09695,14.99566 7.31829,43.23324 0.59437,7.5557 3.75142,10.41304 11.50532,10.41304 5.94563,0 9.41729,2.05308 7.8259,4.62802 -1.57316,2.54541 -18.23402,4.62801 -37.02415,4.62801 -18.79013,0 -35.45099,-2.0826 -37.02414,-4.62801 z m 805.60579,-2.64459 c -10.2669,-10.26694 -9.0254,-23.37099 3.0132,-31.80314 7.1474,-5.00627 21.1587,-7.20444 45.9212,-7.20444 l 35.6355,0 5.3459,-16.19806 c 4.1528,-12.58312 7.8478,-16.19807 16.5569,-16.19807 12.9951,0 13.3603,1.91123 4.9745,26.02923 -3.4302,9.86531 -7.6351,23.66412 -9.3442,30.664 -2.8423,11.64094 -1.9784,12.72705 10.1239,12.72705 11.3331,0 14.108,-2.65598 19.341,-18.51208 5.1854,-15.71184 8.062,-18.51207 19.0167,-18.51207 l 12.9072,0 -6.7059,16.04941 c -8.4852,20.30784 -8.4034,21.98378 0.9834,20.15706 4.2291,-0.82296 10.129,-8.78546 13.1109,-17.6944 4.1422,-12.37573 8.3342,-16.54364 17.7648,-17.66246 14.4702,-1.71676 14.3498,-2.15448 5.3391,19.4113 l -7.0042,16.76324 13.9462,0 c 13.8213,0 14.3773,-0.80671 16.0613,-23.30296 0.7197,-9.61484 26.5618,-41.48898 33.6375,-41.48916 4.1745,-9e-5 4.4797,3.13155 1.157,11.87119 -5.8097,15.28065 -5.899,14.84812 3.5855,17.38089 6.9903,1.86671 6.7321,2.6053 -1.8861,5.39525 -8.556,2.76978 -15.1793,14.23755 -15.4058,26.67377 -0.037,1.90906 7.9376,3.47102 17.7164,3.47102 16.733,0 18.1059,-1.08962 23.3258,-18.51208 4.5987,-15.34891 7.5762,-18.51207 17.4258,-18.51207 8.966,0 11.1856,1.80798 9.0505,7.37197 -1.5559,4.05461 -4.087,12.38504 -5.6248,18.51207 -2.4835,9.89498 -1.2599,11.14011 10.948,11.14011 11.9766,0 13.4734,-1.41516 11.6402,-11.00534 -3.7513,-19.62354 12.7129,-26.01881 66.9835,-26.01881 l 47.6526,0 -3.1691,12.62676 -3.1691,12.62681 15.2681,-12.84729 c 8.3975,-7.06601 18.635,-12.1037 22.75,-11.1949 7.9129,1.74754 8.0919,2.97781 3.3591,23.08572 -2.5166,10.69229 -1.4916,12.72705 6.4115,12.72705 5.1738,0 13.5439,-2.58359 18.6002,-5.74129 7.3172,-4.56966 11.0692,-4.56966 18.3865,0 12.3607,7.71944 13.9468,7.30968 13.9468,-3.60291 0,-7.8587 -2.0233,-8.85215 -12.727,-6.24908 -12.3804,3.0109 -12.5065,2.84577 -4.6281,-6.06122 4.4545,-5.03607 8.0991,-11.27293 8.0991,-13.85976 0,-7.0755 18.0704,-22.00632 21.9447,-18.13202 3.0799,3.0799 5.0969,14.99566 7.3182,43.23324 0.5944,7.5557 3.7515,10.41304 11.5054,10.41304 5.9874,0 9.4211,2.04697 7.809,4.65532 -1.756,2.84123 -26.6601,4.19386 -63.9084,3.47101 -56.8006,-1.1022 -60.9276,-1.78632 -59.5368,-9.86934 1.4111,-8.20071 0.6064,-8.13619 -14.4303,1.15701 -19.2753,11.91279 -33.2696,13.09692 -29.1917,2.47006 1.5559,-4.0546 4.0871,-12.38504 5.6249,-18.51207 2.4835,-9.89498 1.2598,-11.1401 -10.948,-11.1401 -12.0304,0 -13.478,1.39155 -11.6104,11.16106 4.4871,23.4729 -5.7337,25.03749 -164.7952,25.22627 l -145.1799,0.17216 2.923,-18.27984 c 2.8343,-17.72429 2.5192,-18.27965 -10.3739,-18.27965 -11.5059,0 -13.0136,1.48235 -11.1931,11.00533 4.0965,21.42981 -39.1802,35.84502 -56.279,18.74621 z m 33.6861,-15.86749 c 4.2361,-12.15165 3.7769,-13.88405 -3.6802,-13.88405 -8.4413,0 -14.1384,8.54448 -14.1384,21.2046 0,12.05317 12.9145,6.74742 17.8186,-7.32055 z m 328.5893,0 c 4.2361,-12.15165 3.7769,-13.88405 -3.6802,-13.88405 -8.4413,0 -14.1384,8.54448 -14.1384,21.2046 0,12.05317 12.9145,6.74742 17.8186,-7.32055 z M 830.80181,167.69001 c -8.11745,-9.78099 -0.0185,-22.75217 14.20603,-22.75217 14.22454,0 22.32348,12.97118 14.20602,22.75217 -3.34582,4.03147 -9.73855,7.32995 -14.20602,7.32995 -4.46748,0 -10.8602,-3.29848 -14.20603,-7.32995 z m 643.29459,0 c -8.1175,-9.78099 -0.018,-22.75217 14.206,-22.75217 14.2245,0 22.3235,12.97118 14.206,22.75217 -3.3458,4.03147 -9.7385,7.32995 -14.206,7.32995 -4.4675,0 -10.8602,-3.29848 -14.206,-7.32995 z M 359.0659,163.7512 c 0,-11.05365 10.65106,-25.75538 18.65918,-25.75538 9.43969,0 9.4683,0.27768 1.43072,13.88405 -6.7742,11.46781 -20.0899,19.33619 -20.0899,11.87133 z M 573.06071,125.40987 C 553.53237,121.76091 548.83035,102.52441 543.59365,4.8561487 535.86551,-139.27881 542.32483,-223.6797 567.69008,-310.00076 c 15.53001,-52.85068 16.72589,-86.75936 3.35531,-95.14163 -5.67714,-3.55914 -15.92987,-3.06895 -37.02415,1.7701 -26.49161,6.07723 -90.73219,9.26337 -219.27259,10.87525 -43.43727,0.5447 -47.92612,-0.27273 -65.53588,-11.9344 -26.14425,-17.31343 -28.10691,-30.29535 -12.56571,-83.11532 6.87922,-23.38046 12.76704,-52.90039 13.08404,-65.59985 l 0.57637,-23.08991 -46.28018,-8.38528 c -25.4541,-4.61191 -77.24967,-13.43042 -115.10126,-19.59669 -71.674087,-11.67618 -91.1950675,-20.27421 -84.6651714,-37.29085 6.1276554,-15.96841 23.7766814,-16.81343 94.5740604,-4.52811 37.492521,6.506 90.035611,12.8955 116.762411,14.1989 l 48.5942,2.3698 25.29803,-16.59131 c 13.91392,-9.12522 29.53348,-16.57759 34.71014,-16.56082 11.79427,0.0384 32.76404,13.66664 47.41306,30.81412 l 11.20969,13.12157 -2.85615,-20.82609 c -1.57088,-11.45434 -6.07336,-25.74173 -10.00553,-31.74975 -6.88516,-10.51996 -8.62969,-10.81198 -47.20328,-7.90134 -22.02964,1.66228 -69.21041,6.07336 -104.84615,9.80238 -84.58128,8.85083 -117.98924,9.54279 -130.741518,2.70798 -13.892917,-7.44616 -13.698902,-26.02913 0.367974,-35.24611 5.929565,-3.8852 58.542794,-19.37168 116.918274,-34.4144 93.85664,-24.18582 120.65676,-30.10275 180.71459,-39.89815 7.9941,-1.30383 23.61367,-9.58789 34.71014,-18.40902 22.42795,-17.82908 35.85427,-19.74032 61.98258,-8.82323 24.36763,10.18145 56.19123,7.16481 168.68193,-15.98979 52.13374,-10.73098 103.15765,-18.89403 113.38645,-18.14011 16.44418,1.21202 18.7674,2.84431 20.06204,14.09557 1.79035,15.55935 -2.12556,17.28619 -82.40177,36.33767 -103.1925,24.49008 -115.67506,27.68284 -135.29758,34.60606 -34.32953,12.11216 -44.83559,29.46909 -28.01747,46.2872 7.31824,7.31822 16.17229,7.63501 107.60143,3.84981 127.02731,-5.25899 281.61876,-5.24816 473.31049,0.0333 143.2389,3.94638 152.047,3.71483 160.8236,-4.22787 29.8651,-27.02751 -10.9053,-47.74732 -158.5853,-80.59429 -87.2649,-19.40962 -105.8027,-29.62744 -87.3073,-48.12285 l 9.7425,-9.74257 124.5975,24.68994 c 128.9009,25.54269 143.5256,26.52015 172.5132,11.53012 19.3724,-10.01787 28.4796,-8.07753 53.0074,11.29352 20.2317,15.97817 28.1388,18.85653 75.8098,27.59642 57.8866,10.61279 222.6473,52.59946 248.0392,63.2089 31.3029,13.07918 14.6849,44.0805 -23.6289,44.0805 -10.3484,0 -43.7274,-3.11639 -74.1756,-6.92532 -30.4481,-3.80892 -81.8445,-8.2914 -114.214,-9.96106 l -58.8537,-3.03576 -4.1338,11.11807 c -2.2736,6.11495 -5.5137,19.44851 -7.2002,29.63015 -2.8313,17.09346 -2.5318,17.83123 3.908,9.62738 11.1932,-14.25918 31.5381,-25.76203 45.6232,-25.79495 7.1777,-0.0168 22.1311,6.21733 33.23,13.85356 26.3427,18.12425 48.4853,18.1342 173.4116,0.0779 85.3426,-12.33499 95.7816,-13.00707 105.2875,-6.77858 12.2086,7.99941 13.4425,17.03313 3.6623,26.8133 -8.0527,8.0527 -53.1566,18.84275 -108.8107,26.03036 -38.5909,4.98394 -104.9033,16.80927 -122.0921,21.77236 -7.644,2.20714 -8.3685,5.69721 -5.9417,28.62038 1.5202,14.3587 8.041,41.5704 14.4907,60.47046 6.4497,18.90006 11.7267,38.26761 11.7267,43.039 0,17.28824 -13.7729,35.1042 -35.1306,45.4433 -20.3307,9.8419 -24.6762,10.20321 -79.9596,6.64764 -32.1533,-2.06793 -79.4325,-3.26 -105.0651,-2.64906 -30.7643,0.73326 -56.1593,-1.36508 -74.7163,-6.17368 -15.4614,-4.00646 -34.2453,-7.28448 -41.7419,-7.28448 -26.6289,0 -27.6865,26.32561 -4.2763,106.44443 19.4542,66.57992 21.5565,88.71772 21.5565,226.991202 0,176.574218 -4.6541,198.786488 -41.6521,198.786488 -30.6958,0 -32.6469,-5.04963 -53.6458,-138.840552 -9.4321,-60.095143 -12.7085,-102.488348 -15.3804,-199.004788 -2.8135,-101.63351 -4.737,-125.20563 -11.229,-137.6052 -8.0354,-15.34762 -22.9353,-25.25422 -46.5012,-30.91748 l -13.3699,-3.21304 3.1234,19.91862 c 6.7421,42.99586 8.6876,117.65779 3.3269,127.67434 -6.3577,11.87953 -26.7439,17.73064 -76.8989,22.07098 -42.21167,3.65294 -53.22218,7.91127 -53.22218,20.58385 0,11.13996 13.20817,18.50416 33.24888,18.5379 28.1377,0.0472 49.5591,8.73011 56.9901,23.09992 8.7316,16.88514 9.0412,110.220098 0.4452,134.226879 -4.8758,13.6170653 -10.1661,17.9745761 -33.201,27.3471464 C 983.19204,24.11412 954.76439,25.400709 912.87842,12.966149 892.22316,6.8342564 873.66305,-1.9160769 867.58155,-8.3895639 858.83788,-17.696833 852.82488,-19.356811 827.85441,-19.356811 c -54.43688,0 -75.47719,-16.774345 -75.30531,-60.037015 0.17605,-44.311844 26.0271,-83.431554 55.13312,-83.431554 16.29548,0 23.44156,-7.86902 23.44156,-25.81305 0,-23.11052 -9.57458,-27.89302 -37.67387,-18.81794 -32.87092,10.61612 -51.28196,9.79284 -62.75746,-2.8062 -22.74,-24.9664 -26.03293,-45.85001 -17.46859,-110.78393 3.75512,-28.47088 6.82748,-53.45958 6.82748,-55.53048 0,-6.43952 -13.47772,-4.16068 -32.35753,5.47106 -13.59633,6.93638 -19.43523,13.56296 -23.44767,26.6111 -7.97028,25.91866 -11.39154,213.53376 -4.58813,251.603332 5.29825,29.647364 4.98632,32.415289 -6.80721,60.401981 -12.31326,29.2200124 -20.9739,61.039444 -30.30288,111.333508 -7.03616,37.933369 -21.72345,51.753649 -49.48721,46.565869 z m 21.39926,-19.31989 c 4.11732,-2.60858 9.54099,-28.695011 15.62128,-75.134399 5.1228,-39.1261471 11.55995,-76.344995 14.30483,-82.70852 4.98104,-11.547739 4.99391,-11.54052 6.67596,3.751934 2.59146,23.560224 12.8708,15.612574 11.38905,-8.805592 -4.85623,-80.024873 -5.7648,-217.715963 -1.65822,-251.288533 6.14115,-50.20548 13.25187,-63.59735 44.32165,-83.47246 13.80061,-8.82815 27.38038,-20.327 30.17727,-25.55301 7.42024,-13.86491 12.09778,-11.78311 20.4551,9.1039 9.51826,23.78845 9.43871,48.20513 -0.255,78.21945 -6.03651,18.69099 -6.48631,25.05285 -2.08261,29.45655 7.39146,7.39145 35.13782,6.43804 85.59354,-2.94106 51.73823,-9.61748 127.90176,-9.97745 158.32488,-0.74826 27.4233,8.31914 99.4838,9.36605 107.2911,1.55877 4.1591,-4.15916 3.1416,-9.1415 -4.3388,-21.24497 -8.4119,-13.61077 -9.4155,-20.52572 -7.2105,-49.68057 1.4088,-18.62796 4.979,-38.38621 7.9338,-43.90722 5.2984,-9.90016 5.5742,-9.81006 20.0578,6.55223 8.0771,9.12473 22.924,19.35676 32.9931,22.73785 37.9206,12.7333 42.0493,31.81712 46.7154,215.93251 2.7165,107.189398 4.6389,131.651853 12.1836,155.038619 4.9269,15.2724604 11.136,45.470281 13.7978,67.106267 2.6619,21.635986 7.0561,44.024025 9.765,49.751197 6.4736,13.686577 19.8064,13.241777 29.1193,-0.971513 6.5973,-10.068671 7.2374,-29.994511 5.5386,-172.393686 l -1.9206,-161.009134 -17.3826,-64.70927 c -18.4718,-68.7643 -22.4923,-107.76109 -12.3675,-119.96063 7.938,-9.56472 34.8298,-9.53827 71.4404,0.0703 20.6818,5.42798 39.583,6.76521 69.3132,4.9038 24.1712,-1.51336 63.0673,0.18012 95.1735,4.14377 47.2673,5.83532 57.1601,5.8412 76.418,0.0453 25.394,-7.64239 39.7584,-18.8814 39.7584,-31.10773 0,-4.66901 -4.04,-19.12143 -8.9777,-32.1165 -4.9377,-12.99507 -10.3815,-35.40545 -12.0972,-49.80084 -2.1965,-18.42943 -6.4697,-29.75825 -14.4428,-38.28947 -10.363,-11.08843 -10.6976,-12.74182 -3.9447,-19.49466 10.5291,-10.52909 32.6883,-15.92824 108.8827,-26.52958 205.5425,-28.59822 201.4128,-37.54403 -6.1861,-13.40017 -92.2414,10.72773 -108.8779,10.99942 -120.812,1.97297 -4.9409,-3.73717 -12.7507,-6.79484 -17.355,-6.79484 -4.6043,0 -8.3715,-2.08261 -8.3715,-4.62802 0,-2.54541 4.6859,-4.65991 10.413,-4.69889 8.4204,-0.0573 9.0847,-0.92936 3.4711,-4.55715 -12.5641,-8.11955 -27.7682,-5.52974 -27.7682,4.72995 0,6.03659 -7.3266,14.00436 -20.6427,22.44918 -17.5826,11.15059 -27.0159,13.48171 -63.6352,15.72539 -23.6459,1.4488 -76.9991,10.20896 -118.5627,19.46705 -41.5635,9.25808 -78.0092,15.9052 -80.9903,14.77139 -8.7514,-3.32846 24.8124,-15.51016 52.34,-18.99639 13.9502,-1.76672 39.4297,-9.38568 56.621,-16.93102 17.1914,-7.54533 48.8505,-16.9823 70.3536,-20.97103 26.2408,-4.86756 41.8132,-10.25406 47.3582,-16.38126 8.5808,-9.48172 7.626,-14.86247 -10.036,-56.55295 -3.5671,-8.41997 -0.6507,-8.63307 83.8144,-6.12431 48.1306,1.42956 107.0229,5.97231 130.8717,10.095 48.5524,8.39312 93.706,7.91092 96.6561,-1.0322 1.2019,-3.64363 -2.5895,-5.78502 -10.2425,-5.78502 -19.3985,0 -78.4926,-13.11489 -145.9732,-32.39613 -64.5573,-18.44596 -126.445,-32.39613 -143.7203,-32.39613 -5.4439,0 -19.3619,-8.33043 -30.9288,-18.51207 -23.6066,-20.77936 -34.2943,-22.59658 -54.4378,-9.25604 -7.6363,5.05728 -18.5466,9.20877 -24.2452,9.22555 -5.6986,0.0167 -56.7225,-10.18847 -113.3864,-22.67831 -106.6914,-23.51686 -151.6196,-30.58369 -151.6196,-23.84848 0,6.02838 10.3818,8.93284 92.5604,25.89524 41.9993,8.66903 93.9108,21.02962 115.359,27.46799 21.4482,6.43837 43.8363,11.70612 49.7512,11.70612 5.915,0 14.8667,4.11225 19.8928,9.13832 5.0261,5.02608 14.9185,10.52487 21.9831,12.21954 25.2825,6.06481 39.0463,16.32416 47.8169,35.64229 12.4276,27.37258 11.5165,29.98679 -11.6619,33.46261 -43.6863,6.55117 -76.1537,-13.8055 -64.1819,-40.24129 4.8537,-10.71775 5.039,-10.6218 12.1822,6.30704 8.0332,19.03846 26.1059,27.34583 38.0056,17.46991 14.4692,-12.00838 2.1773,-41.60229 -17.2797,-41.60229 -4.8636,0 -13.1143,-2.28591 -18.3347,-5.07981 -12.5367,-6.70945 -20.4312,1.21803 -28.2761,28.3946 l -5.9614,20.65139 -29.8964,1.54855 c -16.4429,0.8517 -72.5898,-0.92357 -124.7707,-3.94505 -235.34018,-13.62713 -242.18604,-13.5945 -472.30352,2.25099 -137.86367,9.49305 -142.50409,8.78962 -153.17815,-23.22001 -6.66861,-19.99785 -9.4071,-23.09481 -21.51376,-24.32989 -17.64807,-1.80039 -47.20732,10.36554 -47.20732,19.42949 0,3.8041 -6.13456,10.54032 -13.63237,14.96938 -18.43825,10.89174 -13.75219,15.61055 15.50223,15.61055 26.14724,0 35.61885,-6.15653 42.10007,-27.36499 4.06798,-13.31173 9.71962,-6.09588 12.26897,15.66473 1.54562,13.19284 0.57313,13.99993 -23.84277,19.78731 -19.58961,4.64339 -31.10334,4.85201 -49.974,0.90546 -27.09871,-5.66735 -37.95835,-1.37065 -37.95835,15.01851 0,25.00626 14.67546,34.72043 61.40344,40.64496 19.18087,2.4319 46.99202,10.17969 64.11069,17.86032 16.62889,7.46086 44.99059,16.05418 63.02607,19.09625 33.20853,5.60135 60.70576,18.25157 40.36206,18.56874 -5.19241,0.0809 -20.81197,-2.80777 -34.71014,-6.41939 -42.60087,-11.07035 -124.4427,-25.87106 -167.94136,-30.37137 -39.30116,-4.06605 -42.61529,-5.29757 -68.06675,-25.29337 l -26.7541,-21.01921 -24.03025,16.17116 c -15.20933,10.23512 -29.55505,16.17116 -39.0811,16.17116 -8.27796,0 -65.64521,-6.29013 -127.48277,-13.97806 -61.837551,-7.68794 -113.466504,-12.94348 -114.730998,-11.67898 -3.938675,3.93867 8.372033,6.40836 81.870003,16.42419 80.371655,10.95254 159.969015,26.09646 172.547625,32.82833 10.28434,5.50401 10.63419,12.81475 1.25409,26.20671 -3.93307,5.61525 -8.212,21.17756 -9.50872,34.5829 -1.29673,13.40534 -6.76427,38.08627 -12.1501,54.84651 -10.95419,34.08848 -9.7325,41.64689 8.68268,53.71851 10.04629,6.58559 21.19272,8.23338 52.31394,7.73365 21.75114,-0.34928 73.91057,-1.00738 115.90984,-1.46244 45.87431,-0.49705 85.60108,-3.27154 99.5024,-6.94919 41.81789,-11.06307 51.32546,-11.66541 62.3413,-3.94959 9.84079,6.89275 10.32437,9.70395 8.11718,47.187 -1.4408,24.46787 -6.84651,53.44449 -14.00013,75.04628 -19.76539,59.68547 -23.43356,97.86986 -23.75923,247.323479 -0.27398,125.629503 0.48863,140.251866 7.90271,151.567603 8.53254,13.022738 15.16023,15.171288 25.86956,8.386248 z m 1.18241,-206.66851 c 0.30129,-20.23601 2.0373,-43.04057 3.85801,-50.67681 l 3.31047,-13.88405 3.69168,17.84883 c 4.30794,20.82807 -0.12681,72.223885 -6.80847,78.905541 -3.04694,3.046948 -4.41443,-7.818575 -4.05169,-32.193511 z m 613.26792,19.900476 c -4.3132,-16.094258 -3.418,-68.263276 1.1712,-68.263276 6.2039,0 9.6626,17.67991 9.7327,49.751202 0.063,28.782341 -5.5829,38.367383 -10.9039,18.512074 z m -633.48454,3.098134 c -8.95873,-8.991777 1.27914,-168.54979 10.81485,-168.54979 4.00782,0 0.76844,111.1694 -4.3607,149.652064 -1.64073,12.309881 -4.54509,20.813864 -6.45415,18.897726 z m 439.66454,-239.1186 c -0.8712,-2.61372 -45.08367,-4.16786 -109.48712,-3.84866 -107.06537,0.53064 -153.15571,-2.17221 -153.15571,-8.98137 0,-1.94154 5.32486,-4.86654 11.83296,-6.49996 9.17898,-2.30378 11.18509,-5.01135 8.9442,-12.07177 -3.46291,-10.91064 4.18318,-11.70176 20.875,-2.15985 15.26432,8.7259 102.28296,8.89533 182.80673,0.3559 33.09034,-3.50915 61.72624,-5.42256 63.63524,-4.25199 1.9091,1.17056 3.471,5.05601 3.471,8.63435 0,3.57834 4.1652,8.73525 9.2561,11.45976 5.0908,2.72452 9.256,6.68707 9.256,8.80559 0,5.67687 -45.6494,13.91275 -47.4344,8.55795 z m -394.72967,-82.46053 c -1.51179,-2.44608 6.82443,-4.32329 19.19859,-4.32329 25.20794,0 25.4772,2.16652 0.74359,5.98225 -9.49864,1.46538 -18.47265,0.71885 -19.94218,-1.65896 z m 537.03847,-1.92033 c -26.1506,-5.50379 -26.6898,-5.87581 -9.2561,-6.38666 25.6015,-0.75018 53.5494,4.33827 50.5432,9.20235 -3.001,4.85569 -5.7177,4.67041 -41.2871,-2.81569 z m -534.53615,-39.42711 c 9.11775,-5.89233 19.83972,-5.89233 16.19807,0 -1.57316,2.54541 -7.42325,4.59613 -13.0002,4.55715 -8.24356,-0.0576 -8.84164,-0.90987 -3.19787,-4.55715 z m 268.42507,0.4837 c -22.49744,-4.0637 -7.44296,-9.73973 25.83263,-9.73973 19.20405,0 25.07557,1.62549 25.07557,6.94203 0,7.41821 -19.41972,8.48544 -50.9082,2.7977 z m 284.62318,-0.4837 c -3.6417,-5.89233 7.0803,-5.89233 16.198,0 5.6438,3.64728 5.0457,4.49954 -3.1979,4.55715 -5.5769,0.039 -11.427,-2.01174 -13.0001,-4.55715 z m 96.2737,-0.36936 c -24.8422,-9.23544 -33.2445,-60.76661 -13.1798,-80.83132 9.3813,-9.38131 15.9156,-11.35968 37.5193,-11.35968 23.1452,0 25.7614,0.93327 22.7036,8.09903 -6.6668,15.62311 -16.2735,45.30505 -20.8165,64.31639 -5.0408,21.09477 -10.8651,25.48647 -26.2266,19.77559 z m 7.8567,-24.51806 c 0,-0.96104 -3.1239,-4.33995 -6.9421,-7.5087 -5.6855,-4.7186 -6.942,-4.40234 -6.942,1.74733 0,4.12979 3.1239,7.5087 6.942,7.5087 3.8182,0 6.9421,-0.7863 6.9421,-1.74733 z m 0,-30.92193 c 0,-2.39519 -3.1239,-4.35489 -6.9421,-4.35489 -7.1568,0 -9.1944,5.4609 -3.9825,10.6729 3.6975,3.69746 10.9246,-0.48218 10.9246,-6.31801 z m 19.7571,-21.27463 c -3.1333,-1.26772 -9.3811,-1.34489 -13.884,-0.17147 -4.503,1.17341 -1.9393,2.21064 5.6969,2.30495 7.6362,0.0943 11.3204,-0.86574 8.1871,-2.13346 z m -784.92283,69.37062 c -1.69695,-1.69694 -3.17676,-9.50672 -3.28848,-17.35507 -0.11172,-7.84835 -3.37253,-22.60016 -7.24623,-32.7818 -14.07186,-36.98657 -15.07915,-34.71013 15.35887,-34.71013 29.44692,0 42.7938,8.40136 49.74374,31.31178 4.28495,14.12536 -5.15746,41.09965 -17.38501,49.66419 -10.18941,7.13691 -31.67971,9.37422 -37.18289,3.87103 z m 36.4431,-20.36265 c 5.42696,-8.78099 -2.48811,-10.94777 -10.54827,-2.88763 -7.2148,7.21481 -7.22748,7.82355 -0.16291,7.82355 4.21335,0 9.03334,-2.22116 10.71118,-4.93592 z m -15.23136,-44.40931 c -3.18176,-1.28387 -8.38829,-1.28387 -11.57005,0 -3.18176,1.28387 -0.5785,2.33431 5.78503,2.33431 6.36352,0 8.96678,-1.05044 5.78502,-2.33431 z m 652.91499,51.85472 c -17.107,-7.44145 -24.6615,-19.42572 -24.6615,-39.12269 0,-18.37557 16.0568,-29.30472 40.1414,-27.32252 l 17.7088,1.45747 -1.5616,25.0601 c -1.66,26.63774 -7.4534,46.7917 -13.3649,46.49304 -1.972,-0.0996 -10.19,-3.05406 -18.2622,-6.5654 z m 12.6071,-17.55055 c -0.1344,-1.90906 -0.2444,-8.67753 -0.2444,-15.04106 0,-8.4847 -2.4683,-11.57004 -9.2561,-11.57004 -9.8667,0 -13.2459,9.15452 -3.471,9.40322 3.5893,0.0913 2.7721,2.43601 -2.153,6.17747 -6.1532,4.67448 -6.6952,7.27308 -2.4103,11.55794 5.7985,5.79844 17.9546,5.43274 17.5348,-0.52753 z m -734.05781,12.57987 c 9.81334,-7.42243 30.35457,-9.25401 30.35457,-2.7066 0,4.59526 -16.06006,9.71267 -30.08212,9.58543 -9.1327,-0.0829 -9.13631,-0.17457 -0.27259,-6.87883 z m 132.333,-4.05466 c -2.3303,-6.12913 -4.88201,-21.22804 -5.67048,-33.55314 -1.41724,-22.15401 -1.26563,-22.42552 13.31277,-23.8375 14.10268,-1.36591 42.71513,9.55562 43.45797,16.58815 0.19484,1.84369 1.10434,7.35486 2.02134,12.24705 5.71555,30.49351 -42.52548,56.4254 -53.1216,28.55544 z m 34.54811,-11.99622 c 3.64165,-5.89233 -7.08031,-5.89233 -16.19807,0 -5.64377,3.64728 -5.04569,4.49953 3.19787,4.55715 5.57695,0.039 11.42704,-2.01174 13.0002,-4.55715 z m -2.31401,-23.14009 c 0,-2.54541 -3.24683,-4.62802 -7.21517,-4.62802 -3.96834,0 -5.92803,2.08261 -4.35488,4.62802 1.57316,2.54541 4.81999,4.62801 7.21518,4.62801 2.39518,0 4.35487,-2.0826 4.35487,-4.62801 z m 224.45889,32.39613 c -6.47598,-2.78284 -0.22075,-4.05387 20.82609,-4.23187 16.54516,-0.13996 33.20603,1.76441 37.02414,4.23187 8.90639,5.75575 -44.45586,5.75575 -57.85023,0 z m 579.07982,-1.94309 c -24.4786,-9.03647 -31.5265,-16.56899 -15.5029,-16.56899 11.2873,0 12.1349,-1.22549 9.6032,-13.88405 -2.5411,-12.70508 -1.7076,-13.88406 9.8146,-13.88406 18.1252,0 37.2701,-12.85785 45.81,-30.76636 5.4284,-11.3834 10.4257,-15.51382 18.7698,-15.51382 17.6643,0 18.5885,8.36833 1.7167,15.54229 -15.9593,6.7859 -14.7783,8.18578 12.5154,14.83527 l 13.8841,3.38253 -17.3245,4.39853 c -10.0106,2.54163 -22.5227,10.55731 -29.6378,18.9871 -11.2516,13.33055 -11.5536,14.66642 -3.5016,15.49147 48.5966,4.97948 62.0339,7.25358 62.0339,10.49844 0,10.57316 -84.0586,16.38655 -108.1809,7.48165 z m 21.8653,-18.73479 c 3.4142,-8.8973 -6.1558,-14.72241 -11.0848,-6.74712 -4.0736,6.59118 -1.7034,13.54094 4.618,13.54094 2.1229,0 5.0329,-3.05722 6.4668,-6.79382 z m -1165.56336,17.329 c -22.41841,-5.51053 -25.30539,-19.79122 -4.00099,-19.79122 10.52045,0 11.57297,-1.68379 10.8485,-17.35507 -0.44128,-9.54528 -0.60054,-18.73232 -0.35391,-20.41563 0.24663,-1.68331 13.40908,-0.037 29.24989,3.65836 23.52912,5.48897 36.736,5.77156 72.14576,1.54371 23.83936,-2.84638 44.38113,-4.13839 45.64837,-2.87115 1.26725,1.26724 -3.52931,6.11504 -10.659,10.77289 -10.21101,6.6709 -21.84095,8.42886 -54.78076,8.28054 -22.99973,-0.10358 -46.22973,-2.63355 -51.62222,-5.62219 -13.41131,-7.43286 -16.60098,-2.51173 -8.51144,13.13172 8.25866,15.97048 28.03887,20.74233 57.65413,13.90867 26.29398,-6.06728 27.76811,-6.07618 27.76811,-0.16767 0,13.94181 -76.4497,24.00622 -113.38645,14.92704 z m 1082.95626,-45.07818 c -13.5755,-6.21615 -13.6269,-6.36462 -2.314,-6.68235 18.7461,-0.52648 46.2802,5.08668 46.2802,9.43476 0,6.16228 -28.3769,4.38581 -43.9662,-2.75241 z m -349.4153,-31.88821 c 0,-3.05666 3.3115,-10.28545 7.359,-16.06399 5.8377,-8.33457 8.7078,-9.38699 13.884,-5.0911 9.6177,7.982 8.0947,12.07706 -7.359,19.78635 -10.0443,5.01076 -13.884,5.38929 -13.884,1.36874 z m -731.22695,-2.82623 c 0,-2.45586 3.90308,-6.55406 8.67352,-9.10712 6.68481,-3.5776 10.56325,-2.5538 16.91535,4.46519 8.05407,8.89964 7.85648,9.10711 -8.67352,9.10711 -9.30345,0 -16.91535,-2.00933 -16.91535,-4.46518 z m 170.28071,-7.16601 c -70.80398,-8.5727 -86.97638,-11.71722 -86.97638,-16.91143 0,-2.53872 5.68614,-3.45012 12.72705,-2.03995 6.99988,1.40194 42.92487,6.99183 79.83332,12.42197 96.85109,14.24918 93.22222,18.49251 -5.58399,6.52941 z m 857.13934,-6.20294 c 0,-2.17254 23.5514,-6.33775 52.3364,-9.25603 62.6797,-6.35459 63.3641,-6.36897 63.3641,-1.33138 0,2.18602 -20.9007,6.35124 -46.4461,9.25603 -55.538,6.31532 -69.2544,6.57901 -69.2544,1.33138 z m -135.3695,-31.63627 c -4.4545,-1.16407 -8.099,-3.90102 -8.099,-6.0821 0,-3.85541 26.5613,1.89483 31.482,6.81551 2.831,2.83103 -11.4583,2.38284 -23.383,-0.73341 z m -547.81854,-26.67028 c -4.15985,-10.84046 2.319,-16.41969 19.06743,-16.41969 17.82754,0 24.21634,6.53665 16.02984,16.4008 -7.24748,8.73266 -31.74839,8.74585 -35.09727,0.019 z m 503.53044,-3.69264 c 1.2634,-8.8959 3.8389,-10.18765 17.677,-8.86604 31.0279,2.96332 30.5244,19.27909 -0.595,19.27909 -16.6012,0 -18.4047,-1.09945 -17.082,-10.41305 z m -224.95562,-49.26719 c -8.02054,-3.14203 -8.13185,-3.79499 -1.10638,-6.49092 9.67464,-3.71251 35.47816,1.07711 35.47816,6.58542 0,4.85904 -21.88053,4.79888 -34.37178,-0.0945 z m 624.44412,-28.43023 c -15.2725,-1.89492 -51.0745,-3.67134 -79.5602,-3.9476 -64.1324,-0.62198 -76.6503,-9.53101 -14.4303,-10.2701 l 43.0823,-0.51176 -24.6488,-6.01065 c -27.9864,-6.82451 -35.5372,-11.4779 -18.6247,-11.4779 32.5959,0 124.2638,24.17658 124.2638,32.77345 0,2.33788 -0.5206,3.94451 -1.157,3.57028 -0.6363,-0.37422 -13.6526,-2.23081 -28.9251,-4.12572 z M 1008.6741,2.0300956 c 28.5004,-11.9082616 35.3649,-26.3798896 35.137,-74.0762476 -0.2018,-42.234838 -5.0129,-79.005368 -11.1448,-85.177658 -1.7963,-1.80817 -22.3662,-4.32887 -45.71103,-5.60157 l -42.44504,-2.31401 1.56909,-27.76811 c 0.86298,-15.27246 3.30061,-29.58095 5.41695,-31.79666 2.1163,-2.21571 27.74192,-5.6684 56.94573,-7.67266 56.3461,-3.86703 70.182,-8.11606 74.9072,-23.00402 7.9585,-25.07507 -12.3768,-37.98863 -40.9933,-26.03191 -26.6149,11.12043 -23.1239,17.703 12.5427,23.65084 9.8053,1.63517 16.9927,3.80835 15.9717,4.82924 -1.0209,1.02094 -36.1174,5.04736 -77.99223,8.94758 -41.87477,3.90017 -80.89665,8.19557 -86.71527,9.54524 -5.81863,1.34972 -21.29555,-0.72835 -34.39312,-4.61793 -14.7034,-4.36644 -42.52566,-7.09905 -72.72501,-7.14279 -56.18622,-0.0814 -72.04219,-5.17528 -40.68616,-13.07082 22.3718,-5.63327 37.04567,-17.61863 25.84929,-21.1132 -15.04796,-4.69675 -35.75015,-6.69762 -44.80297,-4.33025 -17.63668,4.61209 -16.78114,19.62279 3.50045,61.41593 1.77031,3.64799 6.60224,8.76699 10.73756,11.37548 9.25081,5.83524 26.57274,-7.93723 26.57274,-21.12769 0,-9.14237 0.58618,-9.12187 43.01234,1.50267 19.59628,4.90737 26.36082,16.33385 26.47879,44.72726 0.0926,22.23892 5.48874,30.42079 17.54093,26.59555 9.07749,-2.88108 9.57884,-1.00557 10.99085,41.11768 1.66058,49.539417 2.09834,48.881406 -32.45217,48.778756 l -21.60457,-0.06433 19.86276,-10.16808 19.86277,-10.168035 -21.01977,-10.682532 c -11.56088,-5.87527 -21.01977,-11.55056 -21.01977,-12.61158 0,-1.06107 8.33044,-6.61117 18.51208,-12.33358 10.18164,-5.7224 18.51207,-12.19862 18.51207,-14.39161 0,-2.19298 -13.84018,-3.37146 -30.756,-2.61881 -23.59248,1.04973 -31.94643,3.3001 -35.86715,9.66182 -4.17618,6.7763 -3.01432,9.88781 6.35154,17.00973 10.06604,7.65433 11.67834,12.98752 13.2329,43.771845 l 1.77021,35.055481 15.04638,0 c 8.41323,0 22.55433,-5.095032 32.07703,-11.557273 l 17.0306,-11.557319 -1.09267,18.51897 c -1.32825,22.511051 2.94985,27.188867 36.78682,40.2239588 30.65058,11.8076484 72.65443,13.6918532 95.20255,4.2706428 z M 932.39167,-3.1730467 C 919.02003,-10.43973 905.16245,-35.543907 905.18938,-52.452372 c 0.0231,-14.146001 15.24141,-38.885906 28.1808,-45.810903 15.07979,-8.070435 49.01756,-2.755525 62.34348,9.763499 28.01454,26.318291 21.63034,81.7294169 -10.34094,89.7537066 -15.46767,3.8821207 -19.38413,-0.42577767 -8.12851,-8.9413315 8.17164,-6.1821991 6.82415,-6.7593601 -16.0962,-6.8942201 -24.72436,-0.14532 -24.91726,-0.04165 -16.63778,9.1088657 9.73957,10.7621329 5.08032,11.6463158 -12.11856,2.2997086 z m 37.15855,-28.3651713 c 15.67241,-3.13451 25.18725,-15.202022 20.86579,-26.463657 -3.84121,-10.009941 -14.12342,-12.680493 -28.20694,-7.325922 -9.15598,3.481103 -13.31143,3.151912 -16.24578,-1.286866 -3.05444,-4.620336 -5.48744,-3.940018 -10.79703,3.019226 -9.89387,12.9678 -8.4303,25.391253 3.55895,30.210362 13.24738,5.324813 13.39191,5.333467 30.82501,1.846857 z m -68.98885,-58.426464 c 0.0324,-11.191148 18.26794,-35.481538 31.94434,-42.553888 27.04021,-13.98305 57.78321,-7.47902 74.30199,15.71948 15.2601,21.43078 9.6978,24.839963 -14.65345,8.98132 -26.34005,-17.15385 -40.22068,-15.61896 -70.96275,7.847034 -11.35609,8.668279 -20.63967,13.171016 -20.63013,10.006054 z m -4.74294,-58.307018 c -0.0537,-4.18641 -5.05902,-21.66926 -11.12297,-38.85078 l -11.02533,-31.23912 29.63505,0 c 22.71746,0 29.63501,1.55668 29.63501,6.66888 0,8.12342 -7.24836,13.00209 -20.2984,13.66228 -8.10597,0.41004 -10.02776,3.86787 -11.20684,20.164 -1.42265,19.66315 -1.41821,19.66908 14.76796,19.66908 8.90505,0 17.47813,2.08261 19.05129,4.62802 1.57315,2.54541 1.17542,4.67772 -0.88386,4.73844 -2.05929,0.0606 -11.55394,1.924 -21.09923,4.14064 -14.63935,3.39956 -17.37034,2.83915 -17.45268,-3.58144 z m -101.7188,99.399424 c 0,-6.051828 -3.12391,-13.595961 -6.94202,-16.764719 -9.64544,-8.00499 -8.6656,-13.884055 2.31401,-13.884055 10.42128,0 11.22447,-3.476104 4.74256,-20.5248 -6.14944,-16.17423 -16.65536,-14.92864 -22.80188,2.703319 -10.3999,29.833133 -3.62485,59.473647 13.59411,59.473647 6.48922,0 9.09322,-3.151033 9.09322,-11.003392 z M 999.32129,-256.59723 c 7.01241,-5.12756 7.18551,-6.93425 1.41971,-14.81947 -8.82255,-12.06547 -48.47287,-15.60739 -122.49034,-10.94183 -55.0326,3.46883 -72.56409,8.44826 -68.8962,19.56837 2.66519,8.08033 28.01766,10.77032 107.66011,11.4232 53.35615,0.43734 76.57344,-1.03798 82.30672,-5.23027 z m -110.34728,-7.73624 c -26.38637,-1.86888 -33.69984,-3.60148 -25.4541,-6.03017 24.19773,-7.12715 76.82932,-2.52208 71.40912,6.24801 -1.39433,2.25602 -3.97417,3.71996 -5.733,3.25318 -1.75883,-0.46679 -19.85874,-2.02874 -40.22202,-3.47102 z m -32.39613,-27.38037 c 15.95996,-2.93 17.01454,-3.80673 7.64965,-6.35955 -10.68914,-2.9138 -59.79621,3.04519 -64.58867,7.83764 -3.52932,3.52928 35.12986,2.52574 56.93902,-1.47809 z M 240.75719,-688.45812 c 27.83767,-3.62416 71.57244,-6.60099 97.18838,-6.61519 57.60115,-0.0319 75.06343,-4.68499 95.0781,-25.3349 9.5882,-9.8925 22.11587,-17.37423 32.19083,-19.22487 9.07166,-1.66634 17.64141,-4.78488 19.04388,-6.93009 2.55212,-3.90361 38.51993,-13.03992 198.76881,-50.48998 47.09009,-11.00492 87.59682,-21.71218 90.01496,-23.7939 11.24673,-9.68207 -41.60218,-1.72085 -132.06652,19.89467 -66.85649,15.97467 -109.64419,23.80596 -131.49913,24.06785 -32.01575,0.38367 -56.06946,-7.00027 -50.76469,-15.58356 6.18156,-10.00194 -5.52432,-3.27963 -21.56608,12.3847 -15.40216,15.03981 -21.42343,17.45421 -58.04536,23.27492 -38.01713,6.04246 -209.074,45.11014 -264.16244,60.33206 -24.892201,6.87816 -30.538703,12.80636 -16.198062,17.00616 11.309602,3.31213 81.811412,-1.14972 142.017322,-8.98787 z m -11.2758,-20.02743 c 3.81811,-2.1453 23.60289,-7.45607 43.96617,-11.80171 20.36328,-4.34563 47.29454,-10.85749 59.84723,-14.47079 26.88387,-7.73854 83.73185,-9.04973 71.01405,-1.63793 -4.3886,2.55763 -21.77948,5.93891 -38.64638,7.51397 -22.72058,2.12168 -28.6398,3.99827 -22.84339,7.24211 8.43294,4.71931 45.83616,0.65109 59.056,-6.42333 6.05786,-3.24177 8.09904,-2.56568 8.09904,2.68261 0,9.23065 -7.51249,10.51724 -94.87438,16.24817 -89.71479,5.88528 -95.01263,5.92532 -85.61834,0.6469 z"
     id="path3346"
     inkscape:connector-curvature="0" />
</svg>
